<svg xmlns="http://www.w3.org/2000/svg" width="178" height="168"><path style="fill:#fafafa; stroke:none;" d="M0 0L0 168L178 168L178 0L0 0z"></path><path style="fill:#c9c3be; stroke:none;" d="M64 38L65 39L64 38z"></path><path style="fill:#2b2c2c; stroke:none;" d="M65 38L65 41C79.8247 41.1756 84.4049 63.2319 98 66C98 80.2469 93.6771 92.306 80 99.0039C60.7858 108.413 37.2804 91.9642 37.7145 71C38.0423 55.1678 50.5553 52.4418 57 41C39.2879 44.1964 31.278 66.2646 36.5231 82C43.1716 101.945 66.9401 110.511 85 100.12C90.0519 97.2138 94.2703 93.1207 97.0949 88C100.213 82.347 102.483 73.5398 100.682 67.108C97.5425 55.8956 78.4655 51.109 76 39L65 38z"></path><path style="fill:#796c62; stroke:none;" d="M71.6667 38.3333L72.3333 38.6667L71.6667 38.3333z"></path><path style="fill:#bf8b62; stroke:none;" d="M73 38L74 39L73 38z"></path><path style="fill:#c9c3be; stroke:none;" d="M74 38L75 39L74 38z"></path><path style="fill:#796c62; stroke:none;" d="M64.3333 39.6667L64.6667 40.3333L64.3333 39.6667z"></path><path style="fill:#c9c3be; stroke:none;" d="M54 40L55 41L54 40z"></path><path style="fill:#796c62; stroke:none;" d="M55 40L56 41L55 40z"></path><path style="fill:#bf8b62; stroke:none;" d="M56 40L57 41L56 40z"></path><path style="fill:#c9c3be; stroke:none;" d="M76.3333 40.6667L76.6667 41.3333L76.3333 40.6667M52 41L53 42L52 41z"></path><path style="fill:#796c62; stroke:none;" d="M53 41L54 42L53 41z"></path><path style="fill:#bf8b62; stroke:none;" d="M57.3333 41.6667L57.6667 42.3333L57.3333 41.6667z"></path><path style="fill:#c9c3be; stroke:none;" d="M65 41L65 42L71 42L65 41z"></path><path style="fill:#bf8b62; stroke:none;" d="M71 41L72 42L71 41z"></path><path style="fill:#796c62; stroke:none;" d="M72 41L73 42L72 41M51 42L52 43L51 42M76 42L77 43L76 42z"></path><path style="fill:#bf8b62; stroke:none;" d="M49 43L50 44L49 43M56 43L57 44L56 43z"></path><path style="fill:#796c62; stroke:none;" d="M73 43L74 44L73 43M48 44L49 45L48 44z"></path><path style="fill:#bf8b62; stroke:none;" d="M54 44L55 45L54 44z"></path><path style="fill:#c9c3be; stroke:none;" d="M73 44L74 45L73 44z"></path><path style="fill:#796c62; stroke:none;" d="M77 44L78 45L77 44z"></path><path style="fill:#c9c3be; stroke:none;" d="M46 45L47 46L46 45z"></path><path style="fill:#796c62; stroke:none;" d="M52 45L53 46L52 45M74 45L75 46L74 45M78 45L79 46L78 45z"></path><path style="fill:#c9c3be; stroke:none;" d="M45 46L46 47L45 46M51 46L52 47L51 46z"></path><path style="fill:#bf8b62; stroke:none;" d="M80 46L81 47L80 46z"></path><path style="fill:#c9c3be; stroke:none;" d="M81 46L82 47L81 46M44 47L45 48L44 47z"></path><path style="fill:#796c62; stroke:none;" d="M49 47L50 48L49 47z"></path><path style="fill:#c9c3be; stroke:none;" d="M61 47L62 48L61 47M75 47L76 48L75 47z"></path><path style="fill:#796c62; stroke:none;" d="M83 47L84 48L83 47z"></path><path style="fill:#c9c3be; stroke:none;" d="M43 48L44 49L43 48M48 48L49 49L48 48z"></path><path style="fill:#796c62; stroke:none;" d="M59 48L58 50L59 48z"></path><path style="fill:#2b2c2c; stroke:none;" d="M60.3032 49.1752C57.0037 50.8047 59.2371 56.183 62.6968 54.5926C66.0422 53.0547 63.6738 47.5105 60.3032 49.1752z"></path><path style="fill:#796c62; stroke:none;" d="M63 48L64 49L63 48M77 48L78 49L77 48z"></path><path style="fill:#c9c3be; stroke:none;" d="M84 48L85 49L84 48M42 49L43 50L42 49M47 49L48 50L47 49z"></path><path style="fill:#796c62; stroke:none;" d="M64 49L65 50L64 49z"></path><path style="fill:#c9c3be; stroke:none;" d="M78 49L79 50L78 49z"></path><path style="fill:#796c62; stroke:none;" d="M79 49L80 50L79 49z"></path><path style="fill:#bf8b62; stroke:none;" d="M84 49L85 50L84 49z"></path><path style="fill:#c9c3be; stroke:none;" d="M41 50L42 51L41 50M46 50L47 51L46 50M57 50L58 51L57 50M65 50L66 51L65 50z"></path><path style="fill:#796c62; stroke:none;" d="M81 50L82 51L81 50M84 50L85 51L84 50M41 51L42 52L41 51z"></path><path style="fill:#c9c3be; stroke:none;" d="M45 51L46 52L45 51z"></path><path style="fill:#796c62; stroke:none;" d="M57.3333 51.6667L57.6667 52.3333L57.3333 51.6667z"></path><path style="fill:#bf8b62; stroke:none;" d="M65.3333 51.6667L65.6667 52.3333L65.3333 51.6667M81 51L82 52L81 51z"></path><path style="fill:#796c62; stroke:none;" d="M40 52L41 53L40 52z"></path><path style="fill:#bf8b62; stroke:none;" d="M44 52L45 53L44 52z"></path><path style="fill:#c9c3be; stroke:none;" d="M81 52L82 53L81 52z"></path><path style="fill:#796c62; stroke:none;" d="M85 52L86 53L85 52z"></path><path style="fill:#c9c3be; stroke:none;" d="M39 53L40 54L39 53z"></path><path style="fill:#796c62; stroke:none;" d="M43 53L44 54L43 53z"></path><path style="fill:#c9c3be; stroke:none;" d="M57 53L58 54L57 53M65 53L66 54L65 53z"></path><path style="fill:#796c62; stroke:none;" d="M82 53L83 54L82 53M86 53L87 54L86 53M39 54L40 55L39 54M58 54L59 55L58 54M64 54L65 55L64 54z"></path><path style="fill:#c9c3be; stroke:none;" d="M88 54L89 55L88 54z"></path><path style="fill:#bf8b62; stroke:none;" d="M38 55L39 56L38 55z"></path><path style="fill:#c9c3be; stroke:none;" d="M42 55L43 56L42 55z"></path><path style="fill:#bf8b62; stroke:none;" d="M59 55L60 56L59 55z"></path><path style="fill:#796c62; stroke:none;" d="M60 55L61 56L60 55M62 55L63 56L62 55z"></path><path style="fill:#c9c3be; stroke:none;" d="M63 55L64 56L63 55M83 55L84 56L83 55z"></path><path style="fill:#796c62; stroke:none;" d="M91 55L92 56L91 55M41 56L42 57L41 56M85 56L86 57L85 56z"></path><path style="fill:#bf8b62; stroke:none;" d="M92.3333 56.6667L92.6667 57.3333L92.3333 56.6667z"></path><path style="fill:#c9c3be; stroke:none;" d="M37 57L38 58L37 57M41 57L42 58L41 57M86 57L87 58L86 57z"></path><path style="fill:#796c62; stroke:none;" d="M87 57L88 58L87 57M40 58L41 59L40 58M89 58L90 59L89 58M92 58L93 59L92 58z"></path><path style="fill:#c9c3be; stroke:none;" d="M36 59L37 60L36 59M40 59L41 60L40 59M89 59L90 60L89 59M93 59L94 60L93 59z"></path><path style="fill:#796c62; stroke:none;" d="M36 60L37 61L36 60M93 60L94 61L93 60M39 61L40 62L39 61z"></path><path style="fill:#c9c3be; stroke:none;" d="M80 61L81 62L80 61z"></path><path style="fill:#2b2c2c; stroke:none;" d="M81 61L81 64L83 61L81 61z"></path><path style="fill:#bf8b62; stroke:none;" d="M90 61L91 62L90 61z"></path><path style="fill:#796c62; stroke:none;" d="M94 61L95 62L94 61z"></path><path style="fill:#c9c3be; stroke:none;" d="M35 62L36 63L35 62M39 62L40 63L39 62z"></path><path style="fill:#796c62; stroke:none;" d="M80 62L81 63L80 62z"></path><path style="fill:#bf8b62; stroke:none;" d="M83 62L84 63L83 62z"></path><path style="fill:#796c62; stroke:none;" d="M95 62L96 63L95 62z"></path><path style="fill:#c9c3be; stroke:none;" d="M96 62L97 63L96 62z"></path><path style="fill:#bf8b62; stroke:none;" d="M35 63L36 64L35 63z"></path><path style="fill:#c9c3be; stroke:none;" d="M80 63L81 64L80 63z"></path><path style="fill:#796c62; stroke:none;" d="M82 63L83 64L82 63z"></path><path style="fill:#c9c3be; stroke:none;" d="M91 63L92 64L91 63z"></path><path style="fill:#796c62; stroke:none;" d="M98 63L98 64L101 65L98 63z"></path><path style="fill:#c9c3be; stroke:none;" d="M100 63L101 64L100 63z"></path><path style="fill:#796c62; stroke:none;" d="M35 64L36 65L35 64M38 64L39 65L38 64z"></path><path style="fill:#c9c3be; stroke:none;" d="M65 64L64 66L65 64z"></path><path style="fill:#796c62; stroke:none;" d="M66 64L67 65L66 64z"></path><path style="fill:#2b2c2c; stroke:none;" d="M67.1883 64.9707C63.2766 66.0249 64.8993 72.3676 68.8117 71.2485C72.679 70.1423 71.1781 63.8953 67.1883 64.9707z"></path><path style="fill:#796c62; stroke:none;" d="M69 64L70 65L69 64z"></path><path style="fill:#c9c3be; stroke:none;" d="M92 64L93 65L92 64M38.3333 65.6667L38.6667 66.3333L38.3333 65.6667M48 65L49 66L48 65M71 65L72 66L71 65M94 65L95 66L94 65M46 66L47 67L46 66z"></path><path style="fill:#2b2c2c; stroke:none;" d="M47 66L46 69L50 70L49 66L47 66z"></path><path style="fill:#796c62; stroke:none;" d="M49 66L50 67L49 66M64 66L65 67L64 66M71 66L72 67L71 66z"></path><path style="fill:#c9c3be; stroke:none;" d="M96 66L98 68L96 66z"></path><path style="fill:#796c62; stroke:none;" d="M97 66L98 67L97 66z"></path><path style="fill:#c9c3be; stroke:none;" d="M34 67L34 70L35 70L34 67z"></path><path style="fill:#796c62; stroke:none;" d="M46 67L47 68L46 67M50.3333 67.6667L50.6667 68.3333L50.3333 67.6667z"></path><path style="fill:#c9c3be; stroke:none;" d="M101 67L105 70L105 69L101 67z"></path><path style="fill:#bf8b62; stroke:none;" d="M46 69L47 70L46 69z"></path><path style="fill:#c9c3be; stroke:none;" d="M50 69L51 70L50 69z"></path><path style="fill:#796c62; stroke:none;" d="M64 69L65 70L64 69M71 69L72 70L71 69z"></path><path style="fill:#c9c3be; stroke:none;" d="M93 69L93 70L96 70L93 69z"></path><path style="fill:#bf8b62; stroke:none;" d="M66 101C85.1053 100.987 97.8413 88.1742 98 69C80.3543 72.422 67.512 82.0008 66 101M101 69C104.913 89.0616 84.1089 104.95 66 105C66.7569 110.861 68.2163 115.982 71.4429 120.999C98.1021 162.456 158.702 107.309 119.985 76.6806C114.207 72.1092 107.935 70.7949 101 69M34 70L34 73L35 73L34 70z"></path><path style="fill:#796c62; stroke:none;" d="M37 70L37 73L38 73L37 70z"></path><path style="fill:#c9c3be; stroke:none;" d="M47 70L48 71L47 70z"></path><path style="fill:#796c62; stroke:none;" d="M48 70L49 71L48 70z"></path><path style="fill:#c9c3be; stroke:none;" d="M49 70L50 71L49 70M64 70L65 71L64 70M71 70L72 71L71 70M89.6667 70.3333L90.3333 70.6667L89.6667 70.3333z"></path><path style="fill:#796c62; stroke:none;" d="M101 70L101 75L102 75L101 70z"></path><path style="fill:#c9c3be; stroke:none;" d="M107.667 70.3333L108.333 70.6667L107.667 70.3333z"></path><path style="fill:#bf8b62; stroke:none;" d="M65 71L66 72L65 71M70 71L71 72L70 71z"></path><path style="fill:#c9c3be; stroke:none;" d="M86 71L87 72L86 71M111 71L112 72L111 71M67.6667 72.3333L68.3333 72.6667L67.6667 72.3333M84 72L85 73L84 72M113 72L114 73L113 72M34 73L34 76L35 76L34 73M82 73L83 74L82 73M115 73L116 74L115 73M38.3333 75.6667L38.6667 76.3333L38.3333 75.6667M79 75L80 76L79 75M118 75L119 76L118 75M78 76L79 77L78 76z"></path><path style="fill:#796c62; stroke:none;" d="M97.3333 76.6667L97.6667 77.3333L97.3333 76.6667z"></path><path style="fill:#c9c3be; stroke:none;" d="M119 76L120 77L119 76z"></path><path style="fill:#bf8b62; stroke:none;" d="M38 77L39 78L38 77z"></path><path style="fill:#c9c3be; stroke:none;" d="M76 77L77 78L76 77z"></path><path style="fill:#796c62; stroke:none;" d="M35 78L36 79L35 78M38 78L39 79L38 78z"></path><path style="fill:#c9c3be; stroke:none;" d="M75 78L76 79L75 78z"></path><path style="fill:#796c62; stroke:none;" d="M100.333 78.6667L100.667 79.3333L100.333 78.6667z"></path><path style="fill:#c9c3be; stroke:none;" d="M122 78L123 79L122 78z"></path><path style="fill:#bf8b62; stroke:none;" d="M35 79L36 80L35 79z"></path><path style="fill:#c9c3be; stroke:none;" d="M74 79L75 80L74 79M123 79L124 80L123 79M35 80L36 81L35 80M39 80L40 81L39 80z"></path><path style="fill:#796c62; stroke:none;" d="M39 81L40 82L39 81M96 81L97 82L96 81M36 82L37 83L36 82z"></path><path style="fill:#c9c3be; stroke:none;" d="M72 82L73 83L72 82z"></path><path style="fill:#796c62; stroke:none;" d="M99 82L100 83L99 82z"></path><path style="fill:#c9c3be; stroke:none;" d="M125 82L126 83L125 82M36 83L37 84L36 83M40 83L41 84L40 83M71 83L72 84L71 83z"></path><path style="fill:#796c62; stroke:none;" d="M95 83L96 84L95 83z"></path><path style="fill:#c9c3be; stroke:none;" d="M126 83L127 84L126 83z"></path><path style="fill:#796c62; stroke:none;" d="M37 84L38 85L37 84M40 84L41 85L40 84z"></path><path style="fill:#c9c3be; stroke:none;" d="M37 85L38 86L37 85M41 85L42 86L41 85M70 85L71 86L70 85z"></path><path style="fill:#796c62; stroke:none;" d="M82 85L82 86L85 87L82 85M94 85L95 86L94 85M98 85L99 86L98 85M113 85L113 86L116 87L113 85z"></path><path style="fill:#c9c3be; stroke:none;" d="M127 85L128 86L127 85M69 86L70 87L69 86z"></path><path style="fill:#796c62; stroke:none;" d="M80 86L81 87L80 86z"></path><path style="fill:#2b2c2c; stroke:none;" d="M80 87L84 90L85 89L85 87L80 87z"></path><path style="fill:#796c62; stroke:none;" d="M111 86L112 87L111 86z"></path><path style="fill:#2b2c2c; stroke:none;" d="M111 87L115 90L116 89L116 87L111 87z"></path><path style="fill:#c9c3be; stroke:none;" d="M128 86L129 87L128 86M38 87L39 88L38 87z"></path><path style="fill:#bf8b62; stroke:none;" d="M42 87L43 88L42 87z"></path><path style="fill:#796c62; stroke:none;" d="M55 87L56 88L55 87z"></path><path style="fill:#2b2c2c; stroke:none;" d="M56 87L54 89L54 90L56 92L57 92L59 90L59 89L56 87z"></path><path style="fill:#796c62; stroke:none;" d="M57 87L58 88L57 87M93 87L94 88L93 87M97 87L98 88L97 87M39 88L40 89L39 88z"></path><path style="fill:#c9c3be; stroke:none;" d="M43 88L44 89L43 88z"></path><path style="fill:#bf8b62; stroke:none;" d="M54 88L55 89L54 88z"></path><path style="fill:#796c62; stroke:none;" d="M58 88L59 89L58 88z"></path><path style="fill:#c9c3be; stroke:none;" d="M68 88L69 89L68 88z"></path><path style="fill:#796c62; stroke:none;" d="M80 88L81 89L80 88M111 88L112 89L111 88z"></path><path style="fill:#c9c3be; stroke:none;" d="M129 88L130 89L129 88M39 89L40 90L39 89z"></path><path style="fill:#796c62; stroke:none;" d="M43 89L44 90L43 89M81 89L82 90L81 89M112 89L113 90L112 89M115 89L116 90L115 89z"></path><path style="fill:#bf8b62; stroke:none;" d="M40 90L41 91L40 90z"></path><path style="fill:#796c62; stroke:none;" d="M44 90L45 91L44 90z"></path><path style="fill:#bf8b62; stroke:none;" d="M54 90L55 91L54 90M58 90L59 91L58 90z"></path><path style="fill:#796c62; stroke:none;" d="M91 90L92 91L91 90M95 90L96 91L95 90M41 91L42 92L41 91z"></path><path style="fill:#bf8b62; stroke:none;" d="M45 91L46 92L45 91z"></path><path style="fill:#c9c3be; stroke:none;" d="M55 91L56 92L55 91z"></path><path style="fill:#bf8b62; stroke:none;" d="M57 91L58 92L57 91z"></path><path style="fill:#c9c3be; stroke:none;" d="M67 91L68 92L67 91z"></path><path style="fill:#796c62; stroke:none;" d="M90 91L91 92L90 91z"></path><path style="fill:#c9c3be; stroke:none;" d="M130 91L131 92L130 91M46 92L47 93L46 92z"></path><path style="fill:#796c62; stroke:none;" d="M89 92L90 93L89 92z"></path><path style="fill:#c9c3be; stroke:none;" d="M42 93L43 94L42 93M47 93L48 94L47 93z"></path><path style="fill:#796c62; stroke:none;" d="M88 93L89 94L88 93z"></path><path style="fill:#c9c3be; stroke:none;" d="M43 94L44 95L43 94z"></path><path style="fill:#796c62; stroke:none;" d="M48 94L49 95L48 94z"></path><path style="fill:#c9c3be; stroke:none;" d="M66 94L66 97L67 97L66 94z"></path><path style="fill:#796c62; stroke:none;" d="M87 94L88 95L87 94z"></path><path style="fill:#c9c3be; stroke:none;" d="M131 94L131 97L132 97L131 94M44 95L45 96L44 95z"></path><path style="fill:#796c62; stroke:none;" d="M49 95L50 96L49 95M91 95L92 96L91 95z"></path><path style="fill:#c9c3be; stroke:none;" d="M45 96L46 97L45 96M51 96L52 97L51 96z"></path><path style="fill:#796c62; stroke:none;" d="M84 96L85 97L84 96M100 96L101 97L100 96z"></path><path style="fill:#c9c3be; stroke:none;" d="M46 97L47 98L46 97z"></path><path style="fill:#796c62; stroke:none;" d="M52 97L53 98L52 97z"></path><path style="fill:#c9c3be; stroke:none;" d="M53 97L54 98L53 97z"></path><path style="fill:#796c62; stroke:none;" d="M98 97L99 98L98 97z"></path><path style="fill:#2b2c2c; stroke:none;" d="M99.3032 97.8009C95.6298 99.326 98.0679 105.533 101.775 103.824C105.652 102.037 103.368 96.1132 99.3032 97.8009z"></path><path style="fill:#796c62; stroke:none;" d="M48 98L49 99L48 98M54 98L55 99L54 98z"></path><path style="fill:#c9c3be; stroke:none;" d="M55 98L56 99L55 98z"></path><path style="fill:#796c62; stroke:none;" d="M81 98L82 99L81 98M87 98L88 99L87 98z"></path><path style="fill:#c9c3be; stroke:none;" d="M49 99L50 100L49 99z"></path><path style="fill:#796c62; stroke:none;" d="M56 99L57 100L56 99z"></path><path style="fill:#c9c3be; stroke:none;" d="M57 99L58 100L57 99z"></path><path style="fill:#796c62; stroke:none;" d="M78.6667 99.3333L79.3333 99.6667L78.6667 99.3333M86 99L87 100L86 99M96 99L96 102L97 102L96 99M104 99L105 100L104 99z"></path><path style="fill:#bf8b62; stroke:none;" d="M51 100L52 101L51 100z"></path><path style="fill:#796c62; stroke:none;" d="M59 100L60 101L59 100z"></path><path style="fill:#c9c3be; stroke:none;" d="M60.6667 100.333L61.3333 100.667L60.6667 100.333M65 100L66 101L65 100z"></path><path style="fill:#796c62; stroke:none;" d="M75.6667 100.333L76.3333 100.667L75.6667 100.333M84 100L85 101L84 100z"></path><path style="fill:#c9c3be; stroke:none;" d="M132 100L132 105L133 105L132 100M52 101L53 102L52 101z"></path><path style="fill:#796c62; stroke:none;" d="M53 101L54 102L53 101M63 101L63 102L72 102L63 101M82 101L83 102L82 101M104.333 101.667L104.667 102.333L104.333 101.667z"></path><path style="fill:#bf8b62; stroke:none;" d="M55 102L56 103L55 102z"></path><path style="fill:#796c62; stroke:none;" d="M80 102L81 103L80 102z"></path><path style="fill:#c9c3be; stroke:none;" d="M57 103L58 104L57 103z"></path><path style="fill:#bf8b62; stroke:none;" d="M58 103L59 104L58 103z"></path><path style="fill:#796c62; stroke:none;" d="M59 103L60 104L59 103M77 103L78 104L77 103M97 103L98 104L97 103M103 103L104 104L103 103z"></path><path style="fill:#c9c3be; stroke:none;" d="M61 104L62 105L61 104z"></path><path style="fill:#bf8b62; stroke:none;" d="M62.6667 104.333L63.3333 104.667L62.6667 104.333z"></path><path style="fill:#796c62; stroke:none;" d="M64.6667 104.333L65.3333 104.667L64.6667 104.333M72 104L72 105L75 105L72 104M98 104L99 105L98 104M102 104L103 105L102 104M117 106L116 108L117 106z"></path><path style="fill:#2b2c2c; stroke:none;" d="M116 109L117 110L119 107L116 109z"></path><path style="fill:#c9c3be; stroke:none;" d="M66 108L66 111L67 111L66 108z"></path><path style="fill:#796c62; stroke:none;" d="M83 108L82 110L83 108z"></path><path style="fill:#2b2c2c; stroke:none;" d="M84 108L82 112L83 113L87 111L87 110L84 108z"></path><path style="fill:#796c62; stroke:none;" d="M85 108L86 109L85 108M119 108L120 109L119 108z"></path><path style="fill:#c9c3be; stroke:none;" d="M131 108L131 111L132 111L131 108z"></path><path style="fill:#796c62; stroke:none;" d="M86 109L87 110L86 109M118 109L119 110L118 109M86 111L87 112L86 111M85 112L86 113L85 112z"></path><path style="fill:#c9c3be; stroke:none;" d="M67 113L68 114L67 113M130 113L131 114L130 113M68 116L69 117L68 116z"></path><path style="fill:#796c62; stroke:none;" d="M99 116L100 117L99 116z"></path><path style="fill:#2b2c2c; stroke:none;" d="M100.103 117.176C96.1932 117.722 96.86 124.027 100.946 123.534C105.256 123.014 104.236 116.599 100.103 117.176z"></path><path style="fill:#796c62; stroke:none;" d="M101.667 116.333L102.333 116.667L101.667 116.333z"></path><path style="fill:#c9c3be; stroke:none;" d="M129 116L130 117L129 116M69 117L70 118L69 117z"></path><path style="fill:#796c62; stroke:none;" d="M97 117L98 118L97 117M103 117L104 118L103 117z"></path><path style="fill:#c9c3be; stroke:none;" d="M128 117L129 118L128 117z"></path><path style="fill:#796c62; stroke:none;" d="M104.333 118.667L104.667 119.333L104.333 118.667z"></path><path style="fill:#c9c3be; stroke:none;" d="M70 119L71 120L70 119z"></path><path style="fill:#796c62; stroke:none;" d="M96 119L96 122L97 122L96 119z"></path><path style="fill:#c9c3be; stroke:none;" d="M127 119L128 120L127 119M71 121L72 122L71 121z"></path><path style="fill:#796c62; stroke:none;" d="M104 121L105 122L104 121z"></path><path style="fill:#c9c3be; stroke:none;" d="M126 121L127 122L126 121M72 122L73 123L72 122M125 122L126 123L125 122z"></path><path style="fill:#796c62; stroke:none;" d="M103 123L104 124L103 123M99 124L99 125L102 125L99 124z"></path><path style="fill:#c9c3be; stroke:none;" d="M75 126L76 127L75 126M122 126L123 127L122 126M78 128L79 129L78 128M119 128L120 129L119 128M79 129L80 130L79 129M118 129L119 130L118 129M81 130L82 131L81 130M116 130L117 131L116 130M82 131L83 132L82 131M115 131L116 132L115 131M84 132L85 133L84 132M113 132L114 133L113 132M86 133L87 134L86 133M111 133L112 134L111 133M89.6667 134.333L90.3333 134.667L89.6667 134.333M107.667 134.333L108.333 134.667L107.667 134.333M94 135L94 136L97 136L94 135M101 135L101 136L104 136L101 135z"></path></svg>