<svg xmlns="http://www.w3.org/2000/svg" width="173" height="166"><path style="fill:#f9f9f9; stroke:none;" d="M0 0L0 166L173 166L173 0L0 0z"></path><path style="fill:#c5c0bd; stroke:none;" d="M78 32L79 33L78 32z"></path><path style="fill:#bf8c63; stroke:none;" d="M79 32L80 33L79 32z"></path><path style="fill:#7b7a79; stroke:none;" d="M80 32L80 33L92 33L80 32z"></path><path style="fill:#c5c0bd; stroke:none;" d="M92.6667 32.3333L93.3333 32.6667L92.6667 32.3333M72.6667 33.3333L73.3333 33.6667L72.6667 33.3333z"></path><path style="fill:#7b7a79; stroke:none;" d="M74.6667 33.3333L75.3333 33.6667L74.6667 33.3333z"></path><path style="fill:#2c2d2d; stroke:none;" d="M110 39L109 42C151.047 68.3004 125.207 136.947 76 125.572C41.826 117.672 27.7663 74.3139 53.0401 49.0401C67.7506 34.3296 82.3848 36.1884 101 37C93.5998 25.454 65.4481 35.6525 57 41.3596C35.5882 55.8242 30.6548 88.3299 45.7631 109C50.2872 115.189 56.0573 120.717 63 124.099C81.3439 133.035 105.081 130.733 119.907 115.907C142.123 93.6908 137.217 54.5069 110 39z"></path><path style="fill:#7b7a79; stroke:none;" d="M95.6667 33.3333L96.3333 33.6667L95.6667 33.3333z"></path><path style="fill:#c5c0bd; stroke:none;" d="M97.6667 33.3333L98.3333 33.6667L97.6667 33.3333z"></path><path style="fill:#bf8c63; stroke:none;" d="M70 34L71 35L70 34z"></path><path style="fill:#7b7a79; stroke:none;" d="M71 34L72 35L71 34M100 34L101 35L100 34z"></path><path style="fill:#c5c0bd; stroke:none;" d="M67 35L68 36L67 35z"></path><path style="fill:#7b7a79; stroke:none;" d="M68 35L69 36L68 35M80 35L80 36L92 36L80 35z"></path><path style="fill:#c5c0bd; stroke:none;" d="M101.333 35.6667L101.667 36.3333L101.333 35.6667M64 36L65 37L64 36z"></path><path style="fill:#7b7a79; stroke:none;" d="M65 36L66 37L65 36M74.6667 36.3333L75.3333 36.6667L74.6667 36.3333z"></path><path style="fill:#c5c0bd; stroke:none;" d="M76.6667 36.3333L77.3333 36.6667L76.6667 36.3333M93 36L94 37L93 36z"></path><path style="fill:#bf8c63; stroke:none;" d="M94 36L95 37L94 36z"></path><path style="fill:#7b7a79; stroke:none;" d="M95 36L96 37L95 36z"></path><path style="fill:#c5c0bd; stroke:none;" d="M62 37L63 38L62 37z"></path><path style="fill:#7b7a79; stroke:none;" d="M63 37L64 38L63 37M71 37L72 38L71 37z"></path><path style="fill:#c5c0bd; stroke:none;" d="M72 37L73 38L72 37M98 37L99 38L98 37z"></path><path style="fill:#bf8c63; stroke:none;" d="M99 37L100 38L99 37z"></path><path style="fill:#c5c0bd; stroke:none;" d="M100 37L101 38L100 37z"></path><path style="fill:#7b7a79; stroke:none;" d="M61 38L62 39L61 38M68 38L69 39L68 38z"></path><path style="fill:#c5c0bd; stroke:none;" d="M69 38L70 39L69 38M59 39L60 40L59 39z"></path><path style="fill:#7b7a79; stroke:none;" d="M66 39L67 40L66 39z"></path><path style="fill:#c5c0bd; stroke:none;" d="M67 39L68 40L67 39z"></path><path style="fill:#7b7a79; stroke:none;" d="M109 39L110 40L109 39M111 39L112 40L111 39M58 40L59 41L58 40M64 40L65 41L64 40z"></path><path style="fill:#c5c0bd; stroke:none;" d="M65 40L66 41L65 40M108 40L109 41L108 40z"></path><path style="fill:#7b7a79; stroke:none;" d="M112 40L113 41L112 40z"></path><path style="fill:#c5c0bd; stroke:none;" d="M113 40L114 41L113 40M56 41L57 42L56 41z"></path><path style="fill:#7b7a79; stroke:none;" d="M62 41L63 42L62 41z"></path><path style="fill:#c5c0bd; stroke:none;" d="M63 41L64 42L63 41M114 41L115 42L114 41M54 42L55 43L54 42z"></path><path style="fill:#7b7a79; stroke:none;" d="M55 42L56 43L55 42z"></path><path style="fill:#bf8c63; stroke:none;" d="M61 42L62 43L61 42z"></path><path style="fill:#7b7a79; stroke:none;" d="M110 42L111 43L110 42M115 42L116 43L115 42z"></path><path style="fill:#c5c0bd; stroke:none;" d="M53 43L54 44L53 43z"></path><path style="fill:#7b7a79; stroke:none;" d="M59 43L60 44L59 43z"></path><path style="fill:#c5c0bd; stroke:none;" d="M60 43L61 44L60 43z"></path><path style="fill:#bf8c63; stroke:none;" d="M111 43L112 44L111 43z"></path><path style="fill:#7b7a79; stroke:none;" d="M116 43L117 44L116 43z"></path><path style="fill:#c5c0bd; stroke:none;" d="M52 44L53 45L52 44M58 44L59 45L58 44M112 44L113 45L112 44M118 44L119 45L118 44M51 45L52 46L51 45z"></path><path style="fill:#7b7a79; stroke:none;" d="M56 45L57 46L56 45M114 45L115 46L114 45z"></path><path style="fill:#c5c0bd; stroke:none;" d="M119 45L120 46L119 45M50 46L51 47L50 46z"></path><path style="fill:#7b7a79; stroke:none;" d="M55 46L56 47L55 46z"></path><path style="fill:#c5c0bd; stroke:none;" d="M67 46L68 47L67 46z"></path><path style="fill:#bf8c63; stroke:none;" d="M68.0401 46.6566C60.8541 48.9389 60.4229 58.3813 57.0694 64C53.948 69.23 47.6381 73.6065 47.1242 80C46.5369 87.3067 53.1311 91.4935 56.7508 97C60.1068 102.105 60.281 109.526 65.1335 113.566C71.3539 118.746 84.1487 113.141 92.0039 114.436C95.5081 115.014 99.4905 116.518 102.995 115.243C110.167 112.635 110.217 103.676 113.613 98C116.799 92.6736 123.348 88.5625 123.876 82C124.45 74.8541 118.06 70.4625 114.549 65C111.259 59.8831 110.739 51.7461 105.66 48.0093C99.4591 43.4474 89.1787 48.5445 82 47.8295C77.469 47.3782 72.5691 45.2182 68.0401 46.6566z"></path><path style="fill:#c5c0bd; stroke:none;" d="M74.6667 46.3333L75.3333 46.6667L74.6667 46.3333M95.6667 46.3333L96.3333 46.6667L95.6667 46.3333M103 46L104 47L103 46z"></path><path style="fill:#7b7a79; stroke:none;" d="M115 46L116 47L115 46z"></path><path style="fill:#c5c0bd; stroke:none;" d="M120 46L121 47L120 46M49 47L50 48L49 47z"></path><path style="fill:#7b7a79; stroke:none;" d="M54 47L55 48L54 47z"></path><path style="fill:#c5c0bd; stroke:none;" d="M65 47L66 48L65 47M79.6667 47.3333L80.3333 47.6667L79.6667 47.3333M90.6667 47.3333L91.3333 47.6667L90.6667 47.3333M105 47L106 48L105 47z"></path><path style="fill:#7b7a79; stroke:none;" d="M116 47L117 48L116 47z"></path><path style="fill:#c5c0bd; stroke:none;" d="M121 47L122 48L121 47M48 48L49 49L48 48z"></path><path style="fill:#7b7a79; stroke:none;" d="M53 48L54 49L53 48M117 48L118 49L117 48z"></path><path style="fill:#c5c0bd; stroke:none;" d="M122 48L123 49L122 48z"></path><path style="fill:#7b7a79; stroke:none;" d="M52 49L53 50L52 49z"></path><path style="fill:#c5c0bd; stroke:none;" d="M63 49L64 50L63 49M107 49L108 50L107 49z"></path><path style="fill:#7b7a79; stroke:none;" d="M118 49L119 50L118 49z"></path><path style="fill:#c5c0bd; stroke:none;" d="M123 49L124 50L123 49z"></path><path style="fill:#7b7a79; stroke:none;" d="M47 50L48 51L47 50M51 50L52 51L51 50z"></path><path style="fill:#c5c0bd; stroke:none;" d="M62 50L63 51L62 50M108 50L109 51L108 50z"></path><path style="fill:#7b7a79; stroke:none;" d="M119 50L120 51L119 50M123 50L124 51L123 50z"></path><path style="fill:#c5c0bd; stroke:none;" d="M46 51L47 52L46 51z"></path><path style="fill:#7b7a79; stroke:none;" d="M50 51L51 52L50 51M120 51L121 52L120 51M124 51L125 52L124 51z"></path><path style="fill:#c5c0bd; stroke:none;" d="M45 52L46 53L45 52z"></path><path style="fill:#7b7a79; stroke:none;" d="M49 52L50 53L49 52z"></path><path style="fill:#c5c0bd; stroke:none;" d="M61.3333 52.6667L61.6667 53.3333L61.3333 52.6667M109.333 52.6667L109.667 53.3333L109.333 52.6667z"></path><path style="fill:#7b7a79; stroke:none;" d="M121 52L122 53L121 52z"></path><path style="fill:#c5c0bd; stroke:none;" d="M125 52L126 53L125 52z"></path><path style="fill:#7b7a79; stroke:none;" d="M45 53L46 54L45 53z"></path><path style="fill:#c5c0bd; stroke:none;" d="M49 53L50 54L49 53z"></path><path style="fill:#7b7a79; stroke:none;" d="M125 53L126 54L125 53z"></path><path style="fill:#bf8c63; stroke:none;" d="M44 54L45 55L44 54M48 54L49 55L48 54z"></path><path style="fill:#c5c0bd; stroke:none;" d="M122 54L123 55L122 54z"></path><path style="fill:#7b7a79; stroke:none;" d="M126 54L127 55L126 54z"></path><path style="fill:#c5c0bd; stroke:none;" d="M43 55L44 56L43 55z"></path><path style="fill:#7b7a79; stroke:none;" d="M47 55L48 56L47 55z"></path><path style="fill:#c5c0bd; stroke:none;" d="M60 55L61 56L60 55M110 55L111 56L110 55z"></path><path style="fill:#7b7a79; stroke:none;" d="M123 55L124 56L123 55z"></path><path style="fill:#c5c0bd; stroke:none;" d="M127 55L128 56L127 55z"></path><path style="fill:#7b7a79; stroke:none;" d="M43 56L44 57L43 56z"></path><path style="fill:#c5c0bd; stroke:none;" d="M47 56L48 57L47 56z"></path><path style="fill:#7b7a79; stroke:none;" d="M127 56L128 57L127 56z"></path><path style="fill:#c5c0bd; stroke:none;" d="M42 57L43 58L42 57M46 57L47 58L46 57M124 57L125 58L124 57M128 57L129 58L128 57z"></path><path style="fill:#7b7a79; stroke:none;" d="M42 58L43 59L42 58M45 58L46 59L45 58z"></path><path style="fill:#c5c0bd; stroke:none;" d="M59.3333 58.6667L59.6667 59.3333L59.3333 58.6667M111.333 58.6667L111.667 59.3333L111.333 58.6667z"></path><path style="fill:#7b7a79; stroke:none;" d="M125 58L126 59L125 58z"></path><path style="fill:#c5c0bd; stroke:none;" d="M41 59L42 60L41 59M45 59L46 60L45 59M125 59L126 60L125 59M129 59L130 60L129 59z"></path><path style="fill:#7b7a79; stroke:none;" d="M41 60L42 61L41 60M44 60L45 61L44 60M126 60L127 61L126 60z"></path><path style="fill:#c5c0bd; stroke:none;" d="M40 61L41 62L40 61M44 61L45 62L44 61M58 61L59 62L58 61M112 61L113 62L112 61M126 61L127 62L126 61M130 61L131 62L130 61z"></path><path style="fill:#7b7a79; stroke:none;" d="M40 62L41 63L40 62M43 63L44 64L43 63M80.6667 63.3333L81.3333 63.6667L80.6667 63.3333z"></path><path style="fill:#2c2d2d; stroke:none;" d="M99 72C99.3967 77.0262 100.961 82.2206 98.5432 86.9961C89.962 103.949 64.2678 91.2945 72.4568 75.0008C77.1966 65.57 87.8677 69.9936 92 64C70.0787 59.9327 56.9528 89.8827 80 97.8912C93.9052 102.723 113.611 80.9389 99 72z"></path><path style="fill:#7b7a79; stroke:none;" d="M89.6667 63.3333L90.3333 63.6667L89.6667 63.3333z"></path><path style="fill:#bf8c63; stroke:none;" d="M127 63L128 64L127 63z"></path><path style="fill:#c5c0bd; stroke:none;" d="M131 63L132 64L131 63z"></path><path style="fill:#7b7a79; stroke:none;" d="M39 64L40 65L39 64z"></path><path style="fill:#c5c0bd; stroke:none;" d="M43 64L44 65L43 64z"></path><path style="fill:#7b7a79; stroke:none;" d="M78 64L79 65L78 64M131 64L132 65L131 64M42 65L43 66L42 65z"></path><path style="fill:#c5c0bd; stroke:none;" d="M56 65L57 66L56 65z"></path><path style="fill:#7b7a79; stroke:none;" d="M76 65L77 66L76 65z"></path><path style="fill:#c5c0bd; stroke:none;" d="M114 65L115 66L114 65z"></path><path style="fill:#7b7a79; stroke:none;" d="M128 65L129 66L128 65z"></path><path style="fill:#c5c0bd; stroke:none;" d="M38 66L39 67L38 66M42 66L43 67L42 66z"></path><path style="fill:#7b7a79; stroke:none;" d="M74 66L75 67L74 66M82 66L83 67L82 66z"></path><path style="fill:#bf8c63; stroke:none;" d="M83 66L84 67L83 66z"></path><path style="fill:#c5c0bd; stroke:none;" d="M84 66L84 67L87 67L84 66z"></path><path style="fill:#7b7a79; stroke:none;" d="M87.6667 66.3333L88.3333 66.6667L87.6667 66.3333M91 66L92 67L91 66z"></path><path style="fill:#f9f9f9; stroke:none;" d="M91.9992 66.858C85.8036 65.9693 78.4861 66.967 74.419 72.044C67.8249 80.2755 72.3338 93.1586 83 94.7855C99.5765 97.3139 106.884 68.9931 91.9992 66.858z"></path><path style="fill:#c5c0bd; stroke:none;" d="M93 66L94 67L93 66M128 66L129 67L128 66M132 66L133 67L132 66z"></path><path style="fill:#7b7a79; stroke:none;" d="M38.3333 67.6667L38.6667 68.3333L38.3333 67.6667M73 67L74 68L73 67M79 67L80 68L79 67M132.333 67.6667L132.667 68.3333L132.333 67.6667M41.3333 68.6667L41.6667 69.3333L41.3333 68.6667M72 68L73 69L72 68M77 68L78 69L77 68M129.333 68.6667L129.667 69.3333L129.333 68.6667z"></path><path style="fill:#c5c0bd; stroke:none;" d="M53 69L54 70L53 69z"></path><path style="fill:#7b7a79; stroke:none;" d="M71 69L72 70L71 69z"></path><path style="fill:#bf8c63; stroke:none;" d="M76 69L77 70L76 69z"></path><path style="fill:#c5c0bd; stroke:none;" d="M97 69L98 70L97 69M117 69L118 70L117 69M37.3333 70.6667L37.6667 71.3333L37.3333 70.6667M41 70L42 71L41 70M52 70L53 71L52 70M75 70L76 71L75 70M118 70L119 71L118 70M129 70L130 71L129 70M133 70L134 71L133 70M51 71L52 72L51 71M74 71L75 72L74 71z"></path><path style="fill:#7b7a79; stroke:none;" d="M99.6667 71.3333L100.333 71.6667L99.6667 71.3333z"></path><path style="fill:#c5c0bd; stroke:none;" d="M119 71L120 72L119 71z"></path><path style="fill:#7b7a79; stroke:none;" d="M133 71L133 74L134 74L133 71M37 72L38 73L37 72M40.3333 72.6667L40.6667 73.3333L40.3333 72.6667z"></path><path style="fill:#c5c0bd; stroke:none;" d="M50 72L51 73L50 72z"></path><path style="fill:#7b7a79; stroke:none;" d="M69 72L70 73L69 72M73 72L74 73L73 72M98.3333 72.6667L98.6667 73.3333L98.3333 72.6667M101 72L102 73L101 72z"></path><path style="fill:#c5c0bd; stroke:none;" d="M120 72L121 73L120 72z"></path><path style="fill:#7b7a79; stroke:none;" d="M130.333 72.6667L130.667 73.3333L130.333 72.6667z"></path><path style="fill:#c5c0bd; stroke:none;" d="M49 73L50 74L49 73M121 73L122 74L121 73M40 74L41 75L40 74z"></path><path style="fill:#7b7a79; stroke:none;" d="M68.3333 74.6667L68.6667 75.3333L68.3333 74.6667z"></path><path style="fill:#c5c0bd; stroke:none;" d="M72 74L73 75L72 74M98 74L99 75L98 74z"></path><path style="fill:#bf8c63; stroke:none;" d="M130 74L131 75L130 74z"></path><path style="fill:#c5c0bd; stroke:none;" d="M36 75L36 86L37 86L36 75z"></path><path style="fill:#7b7a79; stroke:none;" d="M102 75L103 76L102 75z"></path><path style="fill:#c5c0bd; stroke:none;" d="M130.333 75.6667L130.667 76.3333L130.333 75.6667M47 76L48 77L47 76z"></path><path style="fill:#7b7a79; stroke:none;" d="M71 76L72 77L71 76M99 76L100 77L99 76z"></path><path style="fill:#c5c0bd; stroke:none;" d="M123 76L124 77L123 76M71 77L72 78L71 77M99 77L100 78L99 77M134.333 77.6667L134.667 78.3333L134.333 77.6667z"></path><path style="fill:#7b7a79; stroke:none;" d="M67 78L67 84L68 84L67 78M103 78L103 84L104 84L103 78z"></path><path style="fill:#c5c0bd; stroke:none;" d="M46 79L46 83L47 83L46 79M124 79L124 83L125 83L124 79z"></path><path style="fill:#7b7a79; stroke:none;" d="M131 79L132 80L131 79M134 79L135 80L134 79z"></path><path style="fill:#bf8c63; stroke:none;" d="M134 80L135 81L134 80z"></path><path style="fill:#c5c0bd; stroke:none;" d="M134 81L134 86L135 86L134 81M71 84L72 85L71 84M99 84L100 85L99 84M47 85L48 86L47 85z"></path><path style="fill:#7b7a79; stroke:none;" d="M71 85L72 86L71 85M99 85L100 86L99 85z"></path><path style="fill:#c5c0bd; stroke:none;" d="M123 85L124 86L123 85M130 85L130 88L131 88L130 85M40 86L41 87L40 86z"></path><path style="fill:#7b7a79; stroke:none;" d="M68 86L69 87L68 86M102 86L103 87L102 86z"></path><path style="fill:#bf8c63; stroke:none;" d="M40 87L41 88L40 87z"></path><path style="fill:#c5c0bd; stroke:none;" d="M72 87L73 88L72 87M98 87L99 88L98 87z"></path><path style="fill:#7b7a79; stroke:none;" d="M37 88L38 89L37 88M40 88L41 89L40 88M130 88L131 89L130 88z"></path><path style="fill:#bf8c63; stroke:none;" d="M37 89L38 90L37 89z"></path><path style="fill:#c5c0bd; stroke:none;" d="M50 89L51 90L50 89z"></path><path style="fill:#7b7a79; stroke:none;" d="M69 89L70 90L69 89M73 89L74 90L73 89M97 89L98 90L97 89M101 89L102 90L101 89z"></path><path style="fill:#c5c0bd; stroke:none;" d="M120 89L121 90L120 89z"></path><path style="fill:#7b7a79; stroke:none;" d="M133 89L134 90L133 89z"></path><path style="fill:#c5c0bd; stroke:none;" d="M37 90L38 91L37 90M51 90L52 91L51 90z"></path><path style="fill:#7b7a79; stroke:none;" d="M70 90L71 91L70 90z"></path><path style="fill:#c5c0bd; stroke:none;" d="M74 90L75 91L74 90M96 90L97 91L96 90M119 90L120 91L119 90z"></path><path style="fill:#bf8c63; stroke:none;" d="M133 90L134 91L133 90z"></path><path style="fill:#c5c0bd; stroke:none;" d="M41.3333 91.6667L41.6667 92.3333L41.3333 91.6667M52 91L53 92L52 91M75 91L76 92L75 91M95 91L96 92L95 91M118 91L119 92L118 91M129 91L130 92L129 91M133 91L134 92L133 91M53 92L54 93L53 92z"></path><path style="fill:#7b7a79; stroke:none;" d="M71 92L72 93L71 92M76 92L77 93L76 92M94 92L95 93L94 92M99 92L100 93L99 92z"></path><path style="fill:#c5c0bd; stroke:none;" d="M117 92L118 93L117 92z"></path><path style="fill:#7b7a79; stroke:none;" d="M129.333 92.6667L129.667 93.3333L129.333 92.6667M38.3333 93.6667L38.6667 94.3333L38.3333 93.6667M41 93L42 94L41 93z"></path><path style="fill:#c5c0bd; stroke:none;" d="M54 93L55 94L54 93z"></path><path style="fill:#7b7a79; stroke:none;" d="M72 93L73 94L72 93z"></path><path style="fill:#c5c0bd; stroke:none;" d="M78 93L79 94L78 93M92 93L93 94L92 93z"></path><path style="fill:#7b7a79; stroke:none;" d="M98 93L99 94L98 93z"></path><path style="fill:#c5c0bd; stroke:none;" d="M116 93L117 94L116 93z"></path><path style="fill:#7b7a79; stroke:none;" d="M132.333 93.6667L132.667 94.3333L132.333 93.6667M73 94L74 95L73 94M79 94L80 95L79 94z"></path><path style="fill:#c5c0bd; stroke:none;" d="M80 94L81 95L80 94M90 94L91 95L90 94z"></path><path style="fill:#7b7a79; stroke:none;" d="M91 94L92 95L91 94M97 94L98 95L97 94z"></path><path style="fill:#c5c0bd; stroke:none;" d="M38 95L39 96L38 95M42 95L43 96L42 95z"></path><path style="fill:#7b7a79; stroke:none;" d="M82 95L82 96L85 96L82 95z"></path><path style="fill:#bf8c63; stroke:none;" d="M85 95L86 96L85 95z"></path><path style="fill:#7b7a79; stroke:none;" d="M86 95L86 96L89 96L86 95M96 95L97 96L96 95z"></path><path style="fill:#c5c0bd; stroke:none;" d="M128 95L129 96L128 95M132 95L133 96L132 95z"></path><path style="fill:#7b7a79; stroke:none;" d="M39 96L40 97L39 96M42 96L43 97L42 96M76 96L77 97L76 96M94 96L95 97L94 96M128 96L129 97L128 96z"></path><path style="fill:#c5c0bd; stroke:none;" d="M39 97L40 98L39 97M43 97L44 98L43 97M57 97L58 98L57 97z"></path><path style="fill:#7b7a79; stroke:none;" d="M78 97L79 98L78 97M92 97L93 98L92 97z"></path><path style="fill:#c5c0bd; stroke:none;" d="M113 97L114 98L113 97M127 97L128 98L127 97z"></path><path style="fill:#7b7a79; stroke:none;" d="M131 97L132 98L131 97M43 98L44 99L43 98M81 98L82 99L81 98M89 98L90 99L89 98M127 98L128 99L127 98M40 99L41 100L40 99z"></path><path style="fill:#c5c0bd; stroke:none;" d="M58.3333 99.6667L58.6667 100.333L58.3333 99.6667M112.333 99.6667L112.667 100.333L112.333 99.6667z"></path><path style="fill:#7b7a79; stroke:none;" d="M130 99L131 100L130 99z"></path><path style="fill:#c5c0bd; stroke:none;" d="M40 100L41 101L40 100z"></path><path style="fill:#bf8c63; stroke:none;" d="M44 100L45 101L44 100M126 100L127 101L126 100z"></path><path style="fill:#c5c0bd; stroke:none;" d="M130 100L131 101L130 100z"></path><path style="fill:#7b7a79; stroke:none;" d="M41 101L42 102L41 101M44 101L45 102L44 101M129 101L130 102L129 101z"></path><path style="fill:#bf8c63; stroke:none;" d="M41 102L42 103L41 102z"></path><path style="fill:#c5c0bd; stroke:none;" d="M45 102L46 103L45 102M59.3333 102.667L59.6667 103.333L59.3333 102.667M111.333 102.667L111.667 103.333L111.333 102.667M125 102L126 103L125 102M129 102L130 103L129 102z"></path><path style="fill:#7b7a79; stroke:none;" d="M125 103L126 104L125 103M128 103L129 104L128 103z"></path><path style="fill:#c5c0bd; stroke:none;" d="M42 104L43 105L42 104z"></path><path style="fill:#7b7a79; stroke:none;" d="M46 104L47 105L46 104M124 104L125 105L124 104z"></path><path style="fill:#c5c0bd; stroke:none;" d="M128 104L129 105L128 104z"></path><path style="fill:#7b7a79; stroke:none;" d="M43 105L44 106L43 105z"></path><path style="fill:#c5c0bd; stroke:none;" d="M47 105L48 106L47 105M60.3333 105.667L60.6667 106.333L60.3333 105.667M110.333 105.667L110.667 106.333L110.333 105.667M123 105L124 106L123 105z"></path><path style="fill:#7b7a79; stroke:none;" d="M127 105L128 106L127 105z"></path><path style="fill:#c5c0bd; stroke:none;" d="M43 106L44 107L43 106z"></path><path style="fill:#7b7a79; stroke:none;" d="M47 106L48 107L47 106M123 106L124 107L123 106z"></path><path style="fill:#c5c0bd; stroke:none;" d="M127 106L128 107L127 106z"></path><path style="fill:#bf8c63; stroke:none;" d="M44 107L45 108L44 107z"></path><path style="fill:#7b7a79; stroke:none;" d="M48 107L49 108L48 107M122 107L123 108L122 107z"></path><path style="fill:#bf8c63; stroke:none;" d="M126 107L127 108L126 107z"></path><path style="fill:#7b7a79; stroke:none;" d="M45 108L46 109L45 108z"></path><path style="fill:#c5c0bd; stroke:none;" d="M49 108L50 109L49 108M61 108L62 109L61 108M109 108L110 109L109 108M121 108L122 109L121 108z"></path><path style="fill:#7b7a79; stroke:none;" d="M125 108L126 109L125 108z"></path><path style="fill:#c5c0bd; stroke:none;" d="M45 109L46 110L45 109z"></path><path style="fill:#7b7a79; stroke:none;" d="M49 109L50 110L49 109M121 109L122 110L121 109z"></path><path style="fill:#c5c0bd; stroke:none;" d="M125 109L126 110L125 109z"></path><path style="fill:#bf8c63; stroke:none;" d="M46 110L47 111L46 110z"></path><path style="fill:#7b7a79; stroke:none;" d="M50 110L51 111L50 110M120 110L121 111L120 110z"></path><path style="fill:#c5c0bd; stroke:none;" d="M124 110L125 111L124 110z"></path><path style="fill:#7b7a79; stroke:none;" d="M47 111L48 112L47 111M51 111L52 112L51 111M119 111L120 112L119 111M123 111L124 112L123 111M48 112L49 113L48 112M52 112L53 113L52 112z"></path><path style="fill:#c5c0bd; stroke:none;" d="M63 112L64 113L63 112M107 112L108 113L107 112z"></path><path style="fill:#7b7a79; stroke:none;" d="M118 112L119 113L118 112M49 113L50 114L49 113M53 113L54 114L53 113z"></path><path style="fill:#c5c0bd; stroke:none;" d="M64 113L65 114L64 113M85 113L86 114L85 113M106 113L107 114L106 113z"></path><path style="fill:#7b7a79; stroke:none;" d="M117 113L118 114L117 113z"></path><path style="fill:#c5c0bd; stroke:none;" d="M122 113L123 114L122 113z"></path><path style="fill:#7b7a79; stroke:none;" d="M50 114L51 115L50 114M54 114L55 115L54 114z"></path><path style="fill:#c5c0bd; stroke:none;" d="M65 114L66 115L65 114M78.6667 114.333L79.3333 114.667L78.6667 114.333M91.6667 114.333L92.3333 114.667L91.6667 114.333M105 114L106 115L105 114z"></path><path style="fill:#7b7a79; stroke:none;" d="M116 114L117 115L116 114z"></path><path style="fill:#c5c0bd; stroke:none;" d="M121 114L122 115L121 114z"></path><path style="fill:#7b7a79; stroke:none;" d="M51 115L52 116L51 115M55 115L56 116L55 115z"></path><path style="fill:#c5c0bd; stroke:none;" d="M67 115L68 116L67 115M73.6667 115.333L74.3333 115.667L73.6667 115.333M96.6667 115.333L97.3333 115.667L96.6667 115.333M103 115L104 116L103 115M114 115L115 116L114 115z"></path><path style="fill:#7b7a79; stroke:none;" d="M115 115L116 116L115 115z"></path><path style="fill:#c5c0bd; stroke:none;" d="M120 115L121 116L120 115z"></path><path style="fill:#7b7a79; stroke:none;" d="M56 116L57 117L56 116z"></path><path style="fill:#c5c0bd; stroke:none;" d="M113 116L114 117L113 116M119 116L120 117L119 116M52 117L53 118L52 117M58 117L59 118L58 117z"></path><path style="fill:#7b7a79; stroke:none;" d="M112 117L113 118L112 117z"></path><path style="fill:#c5c0bd; stroke:none;" d="M118 117L119 118L118 117M53 118L54 119L53 118z"></path><path style="fill:#7b7a79; stroke:none;" d="M54 118L55 119L54 118M59 118L60 119L59 118z"></path><path style="fill:#c5c0bd; stroke:none;" d="M110 118L111 119L110 118z"></path><path style="fill:#7b7a79; stroke:none;" d="M111 118L112 119L111 118z"></path><path style="fill:#c5c0bd; stroke:none;" d="M117 118L118 119L117 118z"></path><path style="fill:#7b7a79; stroke:none;" d="M55 119L56 120L55 119z"></path><path style="fill:#c5c0bd; stroke:none;" d="M61 119L62 120L61 119z"></path><path style="fill:#7b7a79; stroke:none;" d="M109 119L110 120L109 119M115 119L116 120L115 119z"></path><path style="fill:#c5c0bd; stroke:none;" d="M116 119L117 120L116 119M56 120L57 121L56 120z"></path><path style="fill:#7b7a79; stroke:none;" d="M57 120L58 121L57 120M62 120L63 121L62 120z"></path><path style="fill:#c5c0bd; stroke:none;" d="M107 120L108 121L107 120z"></path><path style="fill:#7b7a79; stroke:none;" d="M108 120L109 121L108 120z"></path><path style="fill:#c5c0bd; stroke:none;" d="M114 120L115 121L114 120z"></path><path style="fill:#7b7a79; stroke:none;" d="M58 121L59 122L58 121M64 121L65 122L64 121z"></path><path style="fill:#c5c0bd; stroke:none;" d="M65 121L66 122L65 121M105 121L106 122L105 121z"></path><path style="fill:#7b7a79; stroke:none;" d="M106 121L107 122L106 121M112 121L113 122L112 121z"></path><path style="fill:#c5c0bd; stroke:none;" d="M59 122L60 123L59 122z"></path><path style="fill:#7b7a79; stroke:none;" d="M66 122L67 123L66 122z"></path><path style="fill:#c5c0bd; stroke:none;" d="M67 122L68 123L67 122M103 122L104 123L103 122z"></path><path style="fill:#7b7a79; stroke:none;" d="M104 122L105 123L104 122z"></path><path style="fill:#c5c0bd; stroke:none;" d="M111 122L112 123L111 122z"></path><path style="fill:#7b7a79; stroke:none;" d="M61 123L62 124L61 123z"></path><path style="fill:#bf8c63; stroke:none;" d="M69 123L70 124L69 123z"></path><path style="fill:#c5c0bd; stroke:none;" d="M100 123L101 124L100 123z"></path><path style="fill:#7b7a79; stroke:none;" d="M101 123L102 124L101 123M109 123L110 124L109 123z"></path><path style="fill:#c5c0bd; stroke:none;" d="M62 124L63 125L62 124z"></path><path style="fill:#7b7a79; stroke:none;" d="M63 124L64 125L63 124M71 124L72 125L71 124z"></path><path style="fill:#c5c0bd; stroke:none;" d="M72.6667 124.333L73.3333 124.667L72.6667 124.333M97.6667 124.333L98.3333 124.667L97.6667 124.333z"></path><path style="fill:#7b7a79; stroke:none;" d="M99 124L100 125L99 124M107 124L108 125L107 124z"></path><path style="fill:#c5c0bd; stroke:none;" d="M108 124L109 125L108 124M65 125L66 126L65 125z"></path><path style="fill:#7b7a79; stroke:none;" d="M66 125L67 126L66 125M75.6667 125.333L76.3333 125.667L75.6667 125.333z"></path><path style="fill:#c5c0bd; stroke:none;" d="M77.6667 125.333L78.3333 125.667L77.6667 125.333M93 125L94 126L93 125z"></path><path style="fill:#7b7a79; stroke:none;" d="M94.6667 125.333L95.3333 125.667L94.6667 125.333M105 125L106 126L105 125z"></path><path style="fill:#c5c0bd; stroke:none;" d="M106 125L107 126L106 125M67 126L68 127L67 126z"></path><path style="fill:#7b7a79; stroke:none;" d="M68 126L69 127L68 126M80 126L80 127L91 127L80 126M102 126L103 127L102 126z"></path><path style="fill:#bf8c63; stroke:none;" d="M103 126L104 127L103 126M70 127L71 128L70 127z"></path><path style="fill:#7b7a79; stroke:none;" d="M71 127L72 128L71 127M99 127L100 128L99 127z"></path><path style="fill:#bf8c63; stroke:none;" d="M100 127L101 128L100 127z"></path><path style="fill:#c5c0bd; stroke:none;" d="M101 127L102 128L101 127M73 128L74 129L73 128z"></path><path style="fill:#bf8c63; stroke:none;" d="M74 128L75 129L74 128z"></path><path style="fill:#7b7a79; stroke:none;" d="M75 128L76 129L75 128M95.6667 128.333L96.3333 128.667L95.6667 128.333z"></path><path style="fill:#c5c0bd; stroke:none;" d="M97 128L98 129L97 128M77 129L77 130L80 130L77 129z"></path><path style="fill:#7b7a79; stroke:none;" d="M80 129L80 130L83 130L80 129M88 129L88 130L91 130L88 129z"></path><path style="fill:#bf8c63; stroke:none;" d="M91 129L92 130L91 129z"></path><path style="fill:#c5c0bd; stroke:none;" d="M92 129L93 130L92 129z"></path></svg>