<svg xmlns="http://www.w3.org/2000/svg" width="160" height="170"><path style="fill:#f9f9f9; stroke:none;" d="M0 0L0 170L160 170L160 0L0 0z"></path><path style="fill:#c1c1c1; stroke:none;" d="M71.6667 24.3333L72.3333 24.6667L71.6667 24.3333z"></path><path style="fill:#7f7f80; stroke:none;" d="M70 25L70 28L71 28L70 25z"></path><path style="fill:#2b2c2d; stroke:none;" d="M71 25C67.9772 36.4433 52.6319 27.2478 50.6813 38.0154C47.8786 53.4876 80.0644 40.7083 85.1096 48.429C86.4898 50.5412 84.9318 52.5577 82.9259 53.3966C76.3643 56.1409 71.3033 53.6813 71 63C75.5773 60.1195 77.2903 57.6514 82.9961 56.8958C89.7215 56.0052 92.4424 47.867 85.8912 44.179C80.1398 40.9413 69.433 43.0435 63 42.9992C60.4266 42.9815 55.6327 43.3296 54.6127 40.142C53.4988 36.6613 58.6118 35.265 61.0008 35.0586C68.8883 34.3772 72.8932 34.0415 73 25L71 25z"></path><path style="fill:#7f7f80; stroke:none;" d="M73 25L73 30L74 30L73 25M69 30L70 31L69 30z"></path><path style="fill:#b98c67; stroke:none;" d="M73 30L74 31L73 30z"></path><path style="fill:#c1c1c1; stroke:none;" d="M67 31L68 32L67 31z"></path><path style="fill:#7f7f80; stroke:none;" d="M68 31L69 32L68 31z"></path><path style="fill:#b98c67; stroke:none;" d="M54 32L55 33L54 32M72 32L73 33L72 32z"></path><path style="fill:#c1c1c1; stroke:none;" d="M52 33L53 34L52 33z"></path><path style="fill:#7f7f80; stroke:none;" d="M71 33L72 34L71 33z"></path><path style="fill:#c1c1c1; stroke:none;" d="M51 34L52 35L51 34M70 34L71 35L70 34z"></path><path style="fill:#7f7f80; stroke:none;" d="M56 35L56 36L68 36L56 35z"></path><path style="fill:#c1c1c1; stroke:none;" d="M68 35L69 36L68 35z"></path><path style="fill:#b98c67; stroke:none;" d="M50 36L51 37L50 36z"></path><path style="fill:#c1c1c1; stroke:none;" d="M55 36L56 37L55 36z"></path><path style="fill:#7f7f80; stroke:none;" d="M50 37L51 38L50 37z"></path><path style="fill:#c1c1c1; stroke:none;" d="M54 37L55 38L54 37z"></path><path style="fill:#7f7f80; stroke:none;" d="M53 39L54 40L53 39M50 41L51 42L50 41M54 41L55 42L54 41z"></path><path style="fill:#c1c1c1; stroke:none;" d="M50 42L51 43L50 42z"></path><path style="fill:#7f7f80; stroke:none;" d="M55 42L56 43L55 42z"></path><path style="fill:#c1c1c1; stroke:none;" d="M56 42L57 43L56 42z"></path><path style="fill:#7f7f80; stroke:none;" d="M51 43L52 44L51 43M85 43L86 44L85 43z"></path><path style="fill:#c1c1c1; stroke:none;" d="M86 43L87 44L86 43z"></path><path style="fill:#7f7f80; stroke:none;" d="M52 44L53 45L52 44M87 44L88 45L87 44M53 45L54 46L53 45M88 45L89 46L88 45z"></path><path style="fill:#c1c1c1; stroke:none;" d="M55 46L56 47L55 46z"></path><path style="fill:#7f7f80; stroke:none;" d="M56 46L56 47L84 47L56 46z"></path><path style="fill:#c1c1c1; stroke:none;" d="M89 46L90 47L89 46z"></path><path style="fill:#7f7f80; stroke:none;" d="M85 47L86 48L85 47M89 47L90 48L89 47M86 49L87 50L86 49z"></path><path style="fill:#c1c1c1; stroke:none;" d="M90 49L90 52L91 52L90 49M86 50L87 51L86 50z"></path><path style="fill:#7f7f80; stroke:none;" d="M86 51L87 52L86 51z"></path><path style="fill:#c1c1c1; stroke:none;" d="M85 52L86 53L85 52M77 53L77 54L84 54L77 53z"></path><path style="fill:#7f7f80; stroke:none;" d="M84 53L85 54L84 53M89 53L90 54L89 53M74 54L75 55L74 54z"></path><path style="fill:#c1c1c1; stroke:none;" d="M72 55L73 56L72 55M88 55L89 56L88 55M71 56L72 57L71 56z"></path><path style="fill:#7f7f80; stroke:none;" d="M86 56L87 57L86 56M76 57L76 58L84 58L76 57z"></path><path style="fill:#c1c1c1; stroke:none;" d="M84 57L85 58L84 57M70 58L71 59L70 58M75 58L76 59L75 58z"></path><path style="fill:#7f7f80; stroke:none;" d="M70 59L70 62L71 62L70 59z"></path><path style="fill:#c1c1c1; stroke:none;" d="M74 59L75 60L74 59z"></path><path style="fill:#7f7f80; stroke:none;" d="M73 61L74 62L73 61z"></path><path style="fill:#c1c1c1; stroke:none;" d="M70 62L71 63L70 62M73 62L74 63L73 62M43 66L43 67L84 67C73.2501 62.4892 54.6957 66 43 66M93 66L93 67L101 67L93 66z"></path><path style="fill:#7f7f80; stroke:none;" d="M41 67L40 69L41 67z"></path><path style="fill:#2b2c2d; stroke:none;" d="M93 67L93 70C104.662 70.1381 102.982 82.9743 101.561 92C99.2756 106.513 87.5599 119.921 72 119.921C53.8177 119.921 42.2025 102.697 42.0039 86C41.9566 82.0315 40.6944 74.7169 43.7423 71.6034C46.2769 69.0142 51.7321 70 55 70L84 70L84 67L53 67C49.1903 67 43.4858 65.9915 40.7423 69.3179C37.6491 73.0683 38.9927 80.478 39 85C39.0319 104.848 50.309 122.971 72 122.971C89.2836 122.971 101.795 110.603 104.41 94C106.306 81.9556 108.199 67.0117 93 67z"></path><path style="fill:#7f7f80; stroke:none;" d="M84.3333 67.6667L84.6667 68.3333L84.3333 67.6667M92 67L92 70L93 70L92 67z"></path><path style="fill:#b98c67; stroke:none;" d="M102 67L103 68L102 67z"></path><path style="fill:#7f7f80; stroke:none;" d="M103 68L104 69L103 68z"></path><path style="fill:#c1c1c1; stroke:none;" d="M39 69L40 70L39 69z"></path><path style="fill:#b98c67; stroke:none;" d="M84 69L85 70L84 69z"></path><path style="fill:#c1c1c1; stroke:none;" d="M104 69L105 70L104 69z"></path><path style="fill:#7f7f80; stroke:none;" d="M39 70L40 71L39 70M43 70L44 71L43 70z"></path><path style="fill:#c1c1c1; stroke:none;" d="M44 70L44 71L50 71L44 70z"></path><path style="fill:#7f7f80; stroke:none;" d="M50 70L50 71L68 71L50 70z"></path><path style="fill:#c1c1c1; stroke:none;" d="M68 70L68 71L84 71L68 70M93 70L93 71L100 71L93 70z"></path><path style="fill:#7f7f80; stroke:none;" d="M100 70L101 71L100 70M104 70L105 71L104 70z"></path><path style="fill:#c1c1c1; stroke:none;" d="M109 70L108 73L109 73L109 70z"></path><path style="fill:#7f7f80; stroke:none;" d="M110 70L110 71L117 71L110 70z"></path><path style="fill:#c1c1c1; stroke:none;" d="M117 70L118 71L117 70z"></path><path style="fill:#b98c67; stroke:none;" d="M50 71C50 73.2045 49.6702 88.2428 55.412 83.2878C58.6043 80.533 56.6675 76.3891 61 74C63.4305 82.0029 67.9308 76.8403 68 71L50 71z"></path><path style="fill:#2b2c2d; stroke:none;" d="M109 71C111.699 75.1635 117.161 73.479 120.58 77.2284C128.522 85.9376 116.776 92.6438 109 93L109 95C112.565 94.9996 116.71 95.5106 119.985 93.821C128.138 89.6141 128.531 77.7342 120.956 72.7423C117.48 70.4518 112.962 71.0004 109 71z"></path><path style="fill:#7f7f80; stroke:none;" d="M119 71L120 72L119 71M42 72L42 93L43 93L42 72M101 72L101 93L102 93L101 72z"></path><path style="fill:#c1c1c1; stroke:none;" d="M121 72L122 73L121 72z"></path><path style="fill:#7f7f80; stroke:none;" d="M109 73L110 74L109 73M122 73L123 74L122 73z"></path><path style="fill:#c1c1c1; stroke:none;" d="M60 74L61 75L60 74M116 74L117 75L116 74z"></path><path style="fill:#7f7f80; stroke:none;" d="M117 74L118 75L117 74M123 74L124 75L123 74z"></path><path style="fill:#c1c1c1; stroke:none;" d="M57 75L58 76L57 75z"></path><path style="fill:#7f7f80; stroke:none;" d="M119 75L120 76L119 75z"></path><path style="fill:#b98c67; stroke:none;" d="M124 75L125 76L124 75z"></path><path style="fill:#7f7f80; stroke:none;" d="M120 76L121 77L120 76z"></path><path style="fill:#c1c1c1; stroke:none;" d="M61 77L62 78L61 77M110 77L111 78L110 77z"></path><path style="fill:#7f7f80; stroke:none;" d="M111 77L111 78L114 78L111 77z"></path><path style="fill:#c1c1c1; stroke:none;" d="M114.667 77.3333L115.333 77.6667L114.667 77.3333z"></path><path style="fill:#7f7f80; stroke:none;" d="M121 77L122 78L121 77M125 77L126 78L125 77z"></path><path style="fill:#c1c1c1; stroke:none;" d="M62 78L63 79L62 78z"></path><path style="fill:#2b2c2d; stroke:none;" d="M109 78L109 81L116 85L109 88C120.948 87.9578 120.948 78.0422 109 78z"></path><path style="fill:#c1c1c1; stroke:none;" d="M117 78L118 79L117 78M64 79L65 80L64 79M108 79L109 80L108 79M118 79L119 80L118 79M122 79L123 80L122 79z"></path><path style="fill:#b98c67; stroke:none;" d="M126 79L127 80L126 79z"></path><path style="fill:#7f7f80; stroke:none;" d="M126.333 80.6667L126.667 81.3333L126.333 80.6667z"></path><path style="fill:#c1c1c1; stroke:none;" d="M110 81L110 82L115 82L110 81M119 81L120 82L119 81M50 82L51 83L50 82z"></path><path style="fill:#7f7f80; stroke:none;" d="M119.333 82.6667L119.667 83.3333L119.333 82.6667M123 82L123 85L124 85L123 82z"></path><path style="fill:#c1c1c1; stroke:none;" d="M56 83L57 84L56 83M52 84L53 85L52 84M55 84L56 85L55 84M114 84L115 85L114 84z"></path><path style="fill:#7f7f80; stroke:none;" d="M115 84L116 85L115 84z"></path><path style="fill:#b98c67; stroke:none;" d="M119 84L120 85L119 84z"></path><path style="fill:#7f7f80; stroke:none;" d="M109 85L110 86L109 85M126 85L127 86L126 85z"></path><path style="fill:#c1c1c1; stroke:none;" d="M108 86L109 87L108 86M118 86L119 87L118 86M122 86L123 87L122 86z"></path><path style="fill:#b98c67; stroke:none;" d="M126 86L127 87L126 86z"></path><path style="fill:#c1c1c1; stroke:none;" d="M117 87L118 88L117 87M109 88L110 89L109 88z"></path><path style="fill:#7f7f80; stroke:none;" d="M110 88L110 89L115 89L110 88z"></path><path style="fill:#c1c1c1; stroke:none;" d="M115 88L116 89L115 88z"></path><path style="fill:#7f7f80; stroke:none;" d="M121 88L122 89L121 88M125 88L126 89L125 88z"></path><path style="fill:#c1c1c1; stroke:none;" d="M120 89L121 90L120 89M125 89L126 90L125 89z"></path><path style="fill:#7f7f80; stroke:none;" d="M119 90L120 91L119 90M124 90L125 91L124 90z"></path><path style="fill:#b98c67; stroke:none;" d="M117 91L118 92L117 91z"></path><path style="fill:#7f7f80; stroke:none;" d="M123 91L124 92L123 91z"></path><path style="fill:#b98c67; stroke:none;" d="M109 92L110 93L109 92z"></path><path style="fill:#7f7f80; stroke:none;" d="M110 92L110 93L115 93L110 92M122 92L123 93L122 92M39 93L39 96L40 96L39 93M104 93L104 96L105 96L104 93z"></path><path style="fill:#c1c1c1; stroke:none;" d="M108.333 93.6667L108.667 94.3333L108.333 93.6667z"></path><path style="fill:#7f7f80; stroke:none;" d="M121 93L122 94L121 93M119 94L120 95L119 94z"></path><path style="fill:#c1c1c1; stroke:none;" d="M100.333 95.6667L100.667 96.3333L100.333 95.6667z"></path><path style="fill:#7f7f80; stroke:none;" d="M109 95L109 96L117 96L109 95z"></path><path style="fill:#c1c1c1; stroke:none;" d="M117 95L118 96L117 95z"></path><path style="fill:#b98c67; stroke:none;" d="M39 96L40 97L39 96z"></path><path style="fill:#c1c1c1; stroke:none;" d="M43 96L44 97L43 96z"></path><path style="fill:#b98c67; stroke:none;" d="M104 96L105 97L104 96z"></path><path style="fill:#c1c1c1; stroke:none;" d="M39 97L40 98L39 97z"></path><path style="fill:#7f7f80; stroke:none;" d="M43 97L44 98L43 97M100 97L101 98L100 97z"></path><path style="fill:#c1c1c1; stroke:none;" d="M104 97L105 98L104 97z"></path><path style="fill:#7f7f80; stroke:none;" d="M40 99L41 100L40 99M103 99L104 100L103 99z"></path><path style="fill:#c1c1c1; stroke:none;" d="M40 100L41 101L40 100z"></path><path style="fill:#7f7f80; stroke:none;" d="M44 100L45 101L44 100M99 100L100 101L99 100z"></path><path style="fill:#c1c1c1; stroke:none;" d="M103 100L104 101L103 100z"></path><path style="fill:#7f7f80; stroke:none;" d="M41 102L42 103L41 102z"></path><path style="fill:#c1c1c1; stroke:none;" d="M45 102L46 103L45 102M98 102L99 103L98 102z"></path><path style="fill:#7f7f80; stroke:none;" d="M102 102L103 103L102 102z"></path><path style="fill:#c1c1c1; stroke:none;" d="M41 103L42 104L41 103M102 103L103 104L102 103z"></path><path style="fill:#7f7f80; stroke:none;" d="M42 104L43 105L42 104z"></path><path style="fill:#c1c1c1; stroke:none;" d="M46 104L47 105L46 104M97 104L98 105L97 104z"></path><path style="fill:#7f7f80; stroke:none;" d="M101 104L102 105L101 104z"></path><path style="fill:#c1c1c1; stroke:none;" d="M42 105L43 106L42 105M101 105L102 106L101 105z"></path><path style="fill:#7f7f80; stroke:none;" d="M43 106L44 107L43 106M47 106L48 107L47 106M96 106L97 107L96 106M100 106L101 107L100 106z"></path><path style="fill:#c1c1c1; stroke:none;" d="M48 107L49 108L48 107M95 107L96 108L95 107z"></path><path style="fill:#7f7f80; stroke:none;" d="M44 108L45 109L44 108M99 108L100 109L99 108z"></path><path style="fill:#c1c1c1; stroke:none;" d="M46 111L47 112L46 111z"></path><path style="fill:#7f7f80; stroke:none;" d="M51 111L52 112L51 111M92 111L93 112L92 111z"></path><path style="fill:#c1c1c1; stroke:none;" d="M97 111L98 112L97 111M47 112L48 113L47 112M96 112L97 113L96 112z"></path><path style="fill:#b98c67; stroke:none;" d="M36 113L37 114L36 113z"></path><path style="fill:#2b2c2d; stroke:none;" d="M104 113L113 121L113 122C90.9546 135.135 53.0454 135.135 31 122L31 121L40 113C34.1303 114.047 23.7367 119.756 31.2292 126.2C35.8589 130.181 43.1768 131.295 49 132.246C66.2962 135.072 86.0078 135.373 103 130.572C115.808 126.953 119.63 115.788 104 113z"></path><path style="fill:#c1c1c1; stroke:none;" d="M40 113L41 114L40 113M48 113L49 114L48 113M54 113L55 114L54 113M89 113L90 114L89 113M95 113L96 114L95 113M103 113L104 114L103 113z"></path><path style="fill:#b98c67; stroke:none;" d="M107 113L108 114L107 113z"></path><path style="fill:#7f7f80; stroke:none;" d="M34 114L35 115L34 114M40.3333 114.667L40.6667 115.333L40.3333 114.667z"></path><path style="fill:#c1c1c1; stroke:none;" d="M49 114L50 115L49 114z"></path><path style="fill:#b98c67; stroke:none;" d="M55 114L56 115L55 114z"></path><path style="fill:#7f7f80; stroke:none;" d="M88 114L89 115L88 114z"></path><path style="fill:#c1c1c1; stroke:none;" d="M94 114L95 115L94 114z"></path><path style="fill:#7f7f80; stroke:none;" d="M103.333 114.667L103.667 115.333L103.333 114.667M109 114L110 115L109 114M32 115L33 116L32 115z"></path><path style="fill:#c1c1c1; stroke:none;" d="M50 115L51 116L50 115M57 115L58 116L57 115M86 115L87 116L86 115M93 115L94 116L93 115z"></path><path style="fill:#7f7f80; stroke:none;" d="M111 115L112 116L111 115z"></path><path style="fill:#c1c1c1; stroke:none;" d="M30 116L31 117L30 116z"></path><path style="fill:#7f7f80; stroke:none;" d="M38 116L39 117L38 116z"></path><path style="fill:#c1c1c1; stroke:none;" d="M39 116L40 117L39 116M51 116L52 117L51 116z"></path><path style="fill:#7f7f80; stroke:none;" d="M58 116L59 117L58 116z"></path><path style="fill:#c1c1c1; stroke:none;" d="M59 116L60 117L59 116M84 116L85 117L84 116z"></path><path style="fill:#7f7f80; stroke:none;" d="M85 116L86 117L85 116z"></path><path style="fill:#c1c1c1; stroke:none;" d="M92 116L93 117L92 116M104 116L105 117L104 116z"></path><path style="fill:#7f7f80; stroke:none;" d="M105 116L106 117L105 116z"></path><path style="fill:#c1c1c1; stroke:none;" d="M113 116L114 117L113 116M29 117L30 118L29 117z"></path><path style="fill:#7f7f80; stroke:none;" d="M36 117L37 118L36 117M53 117L54 118L53 117M60 117L61 118L60 117z"></path><path style="fill:#c1c1c1; stroke:none;" d="M61 117L62 118L61 117M82 117L83 118L82 117z"></path><path style="fill:#7f7f80; stroke:none;" d="M83 117L84 118L83 117M90 117L91 118L90 117M107 117L108 118L107 117z"></path><path style="fill:#c1c1c1; stroke:none;" d="M114 117L115 118L114 117z"></path><path style="fill:#7f7f80; stroke:none;" d="M34 118L35 119L34 118z"></path><path style="fill:#c1c1c1; stroke:none;" d="M54 118L55 119L54 118z"></path><path style="fill:#7f7f80; stroke:none;" d="M63 118L64 119L63 118z"></path><path style="fill:#c1c1c1; stroke:none;" d="M64 118L65 119L64 118M79 118L80 119L79 118z"></path><path style="fill:#7f7f80; stroke:none;" d="M80 118L81 119L80 118z"></path><path style="fill:#c1c1c1; stroke:none;" d="M89 118L90 119L89 118z"></path><path style="fill:#7f7f80; stroke:none;" d="M109 118L110 119L109 118M28 119L29 120L28 119z"></path><path style="fill:#c1c1c1; stroke:none;" d="M33 119L34 120L33 119M56 119L57 120L56 119z"></path><path style="fill:#7f7f80; stroke:none;" d="M67 119L67 120L77 120L67 119z"></path><path style="fill:#c1c1c1; stroke:none;" d="M87 119L88 120L87 119M110 119L111 120L110 119z"></path><path style="fill:#7f7f80; stroke:none;" d="M115 119L116 120L115 119z"></path><path style="fill:#c1c1c1; stroke:none;" d="M58 120L59 121L58 120M85 120L86 121L85 120z"></path><path style="fill:#7f7f80; stroke:none;" d="M31 121L32 122L31 121M61 121L62 122L61 121M82 121L83 122L82 121M112 121L113 122L112 121z"></path><path style="fill:#c1c1c1; stroke:none;" d="M64 122L65 123L64 122z"></path><path style="fill:#7f7f80; stroke:none;" d="M65.6667 122.333L66.3333 122.667L65.6667 122.333M77.6667 122.333L78.3333 122.667L77.6667 122.333z"></path><path style="fill:#c1c1c1; stroke:none;" d="M79 122L80 123L79 122M111 122L112 123L111 122z"></path><path style="fill:#7f7f80; stroke:none;" d="M28 123L29 124L28 123z"></path><path style="fill:#c1c1c1; stroke:none;" d="M33 123L34 124L33 123M69 123L69 124L75 124L69 123M110 123L111 124L110 123z"></path><path style="fill:#7f7f80; stroke:none;" d="M115 123L116 124L115 123M34 124L35 125L34 124M109 124L110 125L109 124M36 125L37 126L36 125z"></path><path style="fill:#c1c1c1; stroke:none;" d="M37 125L38 126L37 125M106 125L107 126L106 125z"></path><path style="fill:#7f7f80; stroke:none;" d="M107 125L108 126L107 125M31 126L32 127L31 126M39 126L40 127L39 126z"></path><path style="fill:#c1c1c1; stroke:none;" d="M40 126L41 127L40 126M103 126L104 127L103 126z"></path><path style="fill:#7f7f80; stroke:none;" d="M104 126L105 127L104 126M112 126L113 127L112 126z"></path><path style="fill:#c1c1c1; stroke:none;" d="M32 127L33 128L32 127z"></path><path style="fill:#7f7f80; stroke:none;" d="M42 127L43 128L42 127z"></path><path style="fill:#c1c1c1; stroke:none;" d="M43 127L44 128L43 127M100 127L101 128L100 127z"></path><path style="fill:#7f7f80; stroke:none;" d="M101 127L102 128L101 127z"></path><path style="fill:#c1c1c1; stroke:none;" d="M111 127L112 128L111 127z"></path><path style="fill:#b98c67; stroke:none;" d="M34 128L35 129L34 128z"></path><path style="fill:#7f7f80; stroke:none;" d="M46.6667 128.333L47.3333 128.667L46.6667 128.333z"></path><path style="fill:#c1c1c1; stroke:none;" d="M48.6667 128.333L49.3333 128.667L48.6667 128.333M94.6667 128.333L95.3333 128.667L94.6667 128.333z"></path><path style="fill:#7f7f80; stroke:none;" d="M96.6667 128.333L97.3333 128.667L96.6667 128.333z"></path><path style="fill:#c1c1c1; stroke:none;" d="M109 128L110 129L109 128M36 129L37 130L36 129z"></path><path style="fill:#7f7f80; stroke:none;" d="M37 129L38 130L37 129M52 129L52 130L55 130L52 129z"></path><path style="fill:#c1c1c1; stroke:none;" d="M55.6667 129.333L56.3333 129.667L55.6667 129.333M87.6667 129.333L88.3333 129.667L87.6667 129.333z"></path><path style="fill:#7f7f80; stroke:none;" d="M89 129L89 130L92 130L89 129M106 129L107 130L106 129z"></path><path style="fill:#c1c1c1; stroke:none;" d="M107 129L108 130L107 129M39 130L40 131L39 130z"></path><path style="fill:#7f7f80; stroke:none;" d="M40 130L41 131L40 130M61 130L61 131L83 131L61 130M103 130L104 131L103 130z"></path><path style="fill:#c1c1c1; stroke:none;" d="M104 130L105 131L104 130M43 131L44 132L43 131z"></path><path style="fill:#7f7f80; stroke:none;" d="M44 131L45 132L44 131M99 131L100 132L99 131z"></path><path style="fill:#c1c1c1; stroke:none;" d="M100 131L101 132L100 131M47.6667 132.333L48.3333 132.667L47.6667 132.333z"></path><path style="fill:#7f7f80; stroke:none;" d="M49.6667 132.333L50.3333 132.667L49.6667 132.333M93.6667 132.333L94.3333 132.667L93.6667 132.333z"></path><path style="fill:#c1c1c1; stroke:none;" d="M95.6667 132.333L96.3333 132.667L95.6667 132.333M54.6667 133.333L55.3333 133.667L54.6667 133.333z"></path><path style="fill:#7f7f80; stroke:none;" d="M56 133L56 134L61 134L56 133M83 133L83 134L88 134L83 133z"></path><path style="fill:#c1c1c1; stroke:none;" d="M88.6667 133.333L89.3333 133.667L88.6667 133.333M67 134L67 135L77 135L67 134z"></path></svg>