<svg xmlns="http://www.w3.org/2000/svg" width="172" height="170"><path style="fill:#fafaf9; stroke:none;" d="M0 0L0 170L172 170L172 0L0 0z"></path><path style="fill:#c5c0bd; stroke:none;" d="M79 31L80 32L79 31z"></path><path style="fill:#bf8c63; stroke:none;" d="M80 31L81 32L80 31z"></path><path style="fill:#7b7a79; stroke:none;" d="M81 31L81 32L93 32L81 31z"></path><path style="fill:#c5c0bd; stroke:none;" d="M93.6667 31.3333L94.3333 31.6667L93.6667 31.3333M73.6667 32.3333L74.3333 32.6667L73.6667 32.3333z"></path><path style="fill:#7b7a79; stroke:none;" d="M75.6667 32.3333L76.3333 32.6667L75.6667 32.3333z"></path><path style="fill:#2c2d2d; stroke:none;" d="M111 38L110 41C152.047 67.3004 126.207 135.947 77 124.572C42.826 116.672 28.7663 73.3139 54.0401 48.0401C68.7506 33.3296 83.3848 35.1884 102 36C94.5998 24.454 66.4481 34.6525 58 40.3596C36.5882 54.8242 31.6548 87.3299 46.7631 108C51.2872 114.189 57.0573 119.717 64 123.099C82.3439 132.035 106.081 129.733 120.907 114.907C143.123 92.6908 138.217 53.5069 111 38z"></path><path style="fill:#7b7a79; stroke:none;" d="M96.6667 32.3333L97.3333 32.6667L96.6667 32.3333z"></path><path style="fill:#c5c0bd; stroke:none;" d="M98.6667 32.3333L99.3333 32.6667L98.6667 32.3333z"></path><path style="fill:#bf8c63; stroke:none;" d="M71 33L72 34L71 33z"></path><path style="fill:#7b7a79; stroke:none;" d="M72 33L73 34L72 33M101 33L102 34L101 33z"></path><path style="fill:#c5c0bd; stroke:none;" d="M68 34L69 35L68 34z"></path><path style="fill:#7b7a79; stroke:none;" d="M69 34L70 35L69 34M81 34L81 35L93 35L81 34z"></path><path style="fill:#c5c0bd; stroke:none;" d="M102.333 34.6667L102.667 35.3333L102.333 34.6667M65 35L66 36L65 35z"></path><path style="fill:#7b7a79; stroke:none;" d="M66 35L67 36L66 35M75.6667 35.3333L76.3333 35.6667L75.6667 35.3333z"></path><path style="fill:#c5c0bd; stroke:none;" d="M77.6667 35.3333L78.3333 35.6667L77.6667 35.3333M94 35L95 36L94 35z"></path><path style="fill:#bf8c63; stroke:none;" d="M95 35L96 36L95 35z"></path><path style="fill:#7b7a79; stroke:none;" d="M96 35L97 36L96 35z"></path><path style="fill:#c5c0bd; stroke:none;" d="M63 36L64 37L63 36z"></path><path style="fill:#7b7a79; stroke:none;" d="M64 36L65 37L64 36M72 36L73 37L72 36z"></path><path style="fill:#c5c0bd; stroke:none;" d="M73 36L74 37L73 36M99 36L100 37L99 36z"></path><path style="fill:#bf8c63; stroke:none;" d="M100 36L101 37L100 36z"></path><path style="fill:#c5c0bd; stroke:none;" d="M101 36L102 37L101 36z"></path><path style="fill:#7b7a79; stroke:none;" d="M62 37L63 38L62 37M69 37L70 38L69 37z"></path><path style="fill:#c5c0bd; stroke:none;" d="M70 37L71 38L70 37M60 38L61 39L60 38z"></path><path style="fill:#7b7a79; stroke:none;" d="M67 38L68 39L67 38z"></path><path style="fill:#c5c0bd; stroke:none;" d="M68 38L69 39L68 38z"></path><path style="fill:#7b7a79; stroke:none;" d="M110 38L111 39L110 38M112 38L113 39L112 38M59 39L60 40L59 39M65 39L66 40L65 39z"></path><path style="fill:#c5c0bd; stroke:none;" d="M66 39L67 40L66 39M109 39L110 40L109 39z"></path><path style="fill:#7b7a79; stroke:none;" d="M113 39L114 40L113 39z"></path><path style="fill:#c5c0bd; stroke:none;" d="M114 39L115 40L114 39M57 40L58 41L57 40z"></path><path style="fill:#7b7a79; stroke:none;" d="M63 40L64 41L63 40z"></path><path style="fill:#c5c0bd; stroke:none;" d="M64 40L65 41L64 40M115 40L116 41L115 40M55 41L56 42L55 41z"></path><path style="fill:#7b7a79; stroke:none;" d="M56 41L57 42L56 41z"></path><path style="fill:#bf8c63; stroke:none;" d="M62 41L63 42L62 41z"></path><path style="fill:#7b7a79; stroke:none;" d="M111 41L112 42L111 41M116 41L117 42L116 41z"></path><path style="fill:#c5c0bd; stroke:none;" d="M54 42L55 43L54 42z"></path><path style="fill:#7b7a79; stroke:none;" d="M60 42L61 43L60 42z"></path><path style="fill:#c5c0bd; stroke:none;" d="M61 42L62 43L61 42z"></path><path style="fill:#bf8c63; stroke:none;" d="M112 42L113 43L112 42z"></path><path style="fill:#7b7a79; stroke:none;" d="M117 42L118 43L117 42z"></path><path style="fill:#c5c0bd; stroke:none;" d="M53 43L54 44L53 43M59 43L60 44L59 43M113 43L114 44L113 43M119 43L120 44L119 43M52 44L53 45L52 44z"></path><path style="fill:#7b7a79; stroke:none;" d="M57 44L58 45L57 44M115 44L116 45L115 44z"></path><path style="fill:#c5c0bd; stroke:none;" d="M120 44L121 45L120 44M51 45L52 46L51 45z"></path><path style="fill:#7b7a79; stroke:none;" d="M56 45L57 46L56 45z"></path><path style="fill:#c5c0bd; stroke:none;" d="M68 45L69 46L68 45z"></path><path style="fill:#bf8c63; stroke:none;" d="M69.0401 45.6566C61.8541 47.9389 61.4229 57.3813 58.0694 63C54.948 68.23 48.6381 72.6065 48.1242 79C47.5369 86.3067 54.1311 90.4935 57.7508 96C61.1068 101.105 61.281 108.526 66.1335 112.566C72.3539 117.746 85.1487 112.141 93.0039 113.436C96.5081 114.014 100.491 115.518 103.995 114.243C111.167 111.635 111.217 102.676 114.613 97C117.799 91.6736 124.348 87.5624 124.876 81C125.45 73.8541 119.06 69.4625 115.549 64C112.259 58.8831 111.739 50.7461 106.66 47.0093C100.459 42.4474 90.1787 47.5445 83 46.8295C78.469 46.3782 73.5691 44.2182 69.0401 45.6566z"></path><path style="fill:#c5c0bd; stroke:none;" d="M75.6667 45.3333L76.3333 45.6667L75.6667 45.3333M96.6667 45.3333L97.3333 45.6667L96.6667 45.3333M104 45L105 46L104 45z"></path><path style="fill:#7b7a79; stroke:none;" d="M116 45L117 46L116 45z"></path><path style="fill:#c5c0bd; stroke:none;" d="M121 45L122 46L121 45M50 46L51 47L50 46z"></path><path style="fill:#7b7a79; stroke:none;" d="M55 46L56 47L55 46z"></path><path style="fill:#c5c0bd; stroke:none;" d="M66 46L67 47L66 46M80.6667 46.3333L81.3333 46.6667L80.6667 46.3333M91.6667 46.3333L92.3333 46.6667L91.6667 46.3333M106 46L107 47L106 46z"></path><path style="fill:#7b7a79; stroke:none;" d="M117 46L118 47L117 46z"></path><path style="fill:#c5c0bd; stroke:none;" d="M122 46L123 47L122 46M49 47L50 48L49 47z"></path><path style="fill:#7b7a79; stroke:none;" d="M54 47L55 48L54 47M118 47L119 48L118 47z"></path><path style="fill:#c5c0bd; stroke:none;" d="M123 47L124 48L123 47z"></path><path style="fill:#7b7a79; stroke:none;" d="M53 48L54 49L53 48z"></path><path style="fill:#c5c0bd; stroke:none;" d="M64 48L65 49L64 48M108 48L109 49L108 48z"></path><path style="fill:#7b7a79; stroke:none;" d="M119 48L120 49L119 48z"></path><path style="fill:#c5c0bd; stroke:none;" d="M124 48L125 49L124 48z"></path><path style="fill:#7b7a79; stroke:none;" d="M48 49L49 50L48 49M52 49L53 50L52 49z"></path><path style="fill:#c5c0bd; stroke:none;" d="M63 49L64 50L63 49M109 49L110 50L109 49z"></path><path style="fill:#7b7a79; stroke:none;" d="M120 49L121 50L120 49M124 49L125 50L124 49z"></path><path style="fill:#c5c0bd; stroke:none;" d="M47 50L48 51L47 50z"></path><path style="fill:#7b7a79; stroke:none;" d="M51 50L52 51L51 50M121 50L122 51L121 50M125 50L126 51L125 50z"></path><path style="fill:#c5c0bd; stroke:none;" d="M46 51L47 52L46 51z"></path><path style="fill:#7b7a79; stroke:none;" d="M50 51L51 52L50 51z"></path><path style="fill:#c5c0bd; stroke:none;" d="M62.3333 51.6667L62.6667 52.3333L62.3333 51.6667M110.333 51.6667L110.667 52.3333L110.333 51.6667z"></path><path style="fill:#7b7a79; stroke:none;" d="M122 51L123 52L122 51z"></path><path style="fill:#c5c0bd; stroke:none;" d="M126 51L127 52L126 51z"></path><path style="fill:#7b7a79; stroke:none;" d="M46 52L47 53L46 52z"></path><path style="fill:#c5c0bd; stroke:none;" d="M50 52L51 53L50 52z"></path><path style="fill:#7b7a79; stroke:none;" d="M126 52L127 53L126 52z"></path><path style="fill:#bf8c63; stroke:none;" d="M45 53L46 54L45 53M49 53L50 54L49 53z"></path><path style="fill:#c5c0bd; stroke:none;" d="M123 53L124 54L123 53z"></path><path style="fill:#7b7a79; stroke:none;" d="M127 53L128 54L127 53z"></path><path style="fill:#c5c0bd; stroke:none;" d="M44 54L45 55L44 54z"></path><path style="fill:#7b7a79; stroke:none;" d="M48 54L49 55L48 54z"></path><path style="fill:#c5c0bd; stroke:none;" d="M61 54L62 55L61 54M111 54L112 55L111 54z"></path><path style="fill:#7b7a79; stroke:none;" d="M124 54L125 55L124 54z"></path><path style="fill:#c5c0bd; stroke:none;" d="M128 54L129 55L128 54z"></path><path style="fill:#7b7a79; stroke:none;" d="M44 55L45 56L44 55z"></path><path style="fill:#c5c0bd; stroke:none;" d="M48 55L49 56L48 55z"></path><path style="fill:#7b7a79; stroke:none;" d="M128 55L129 56L128 55z"></path><path style="fill:#c5c0bd; stroke:none;" d="M43 56L44 57L43 56M47 56L48 57L47 56M125 56L126 57L125 56M129 56L130 57L129 56z"></path><path style="fill:#7b7a79; stroke:none;" d="M43 57L44 58L43 57M46 57L47 58L46 57z"></path><path style="fill:#c5c0bd; stroke:none;" d="M60.3333 57.6667L60.6667 58.3333L60.3333 57.6667M112.333 57.6667L112.667 58.3333L112.333 57.6667z"></path><path style="fill:#7b7a79; stroke:none;" d="M126 57L127 58L126 57z"></path><path style="fill:#c5c0bd; stroke:none;" d="M42 58L43 59L42 58M46 58L47 59L46 58M126 58L127 59L126 58M130 58L131 59L130 58z"></path><path style="fill:#7b7a79; stroke:none;" d="M42 59L43 60L42 59M45 59L46 60L45 59M127 59L128 60L127 59z"></path><path style="fill:#c5c0bd; stroke:none;" d="M41 60L42 61L41 60M45 60L46 61L45 60M59 60L60 61L59 60M113 60L114 61L113 60M127 60L128 61L127 60M131 60L132 61L131 60z"></path><path style="fill:#7b7a79; stroke:none;" d="M41 61L42 62L41 61M44 62L45 63L44 62M81.6667 62.3333L82.3333 62.6667L81.6667 62.3333z"></path><path style="fill:#2c2d2d; stroke:none;" d="M100 71C100.397 76.0262 101.961 81.2206 99.5432 85.9961C90.962 102.949 65.2678 90.2945 73.4568 74.0008C78.1966 64.57 88.8676 68.9937 93 63C71.0787 58.9327 57.9528 88.8827 81 96.8912C94.9052 101.723 114.611 79.9389 100 71z"></path><path style="fill:#7b7a79; stroke:none;" d="M90.6667 62.3333L91.3333 62.6667L90.6667 62.3333z"></path><path style="fill:#bf8c63; stroke:none;" d="M128 62L129 63L128 62z"></path><path style="fill:#c5c0bd; stroke:none;" d="M132 62L133 63L132 62z"></path><path style="fill:#7b7a79; stroke:none;" d="M40 63L41 64L40 63z"></path><path style="fill:#c5c0bd; stroke:none;" d="M44 63L45 64L44 63z"></path><path style="fill:#7b7a79; stroke:none;" d="M79 63L80 64L79 63M132 63L133 64L132 63M43 64L44 65L43 64z"></path><path style="fill:#c5c0bd; stroke:none;" d="M57 64L58 65L57 64z"></path><path style="fill:#7b7a79; stroke:none;" d="M77 64L78 65L77 64z"></path><path style="fill:#c5c0bd; stroke:none;" d="M115 64L116 65L115 64z"></path><path style="fill:#7b7a79; stroke:none;" d="M129 64L130 65L129 64z"></path><path style="fill:#c5c0bd; stroke:none;" d="M39 65L40 66L39 65M43 65L44 66L43 65z"></path><path style="fill:#7b7a79; stroke:none;" d="M75 65L76 66L75 65M83 65L84 66L83 65z"></path><path style="fill:#bf8c63; stroke:none;" d="M84 65L85 66L84 65z"></path><path style="fill:#c5c0bd; stroke:none;" d="M85 65L85 66L88 66L85 65z"></path><path style="fill:#7b7a79; stroke:none;" d="M88.6667 65.3333L89.3333 65.6667L88.6667 65.3333M92 65L93 66L92 65z"></path><path style="fill:#fafaf9; stroke:none;" d="M92.9992 65.858C86.8036 64.9693 79.4861 65.967 75.419 71.044C68.8249 79.2755 73.3339 92.1586 84 93.7855C100.577 96.3139 107.884 67.9931 92.9992 65.858z"></path><path style="fill:#c5c0bd; stroke:none;" d="M94 65L95 66L94 65M129 65L130 66L129 65M133 65L134 66L133 65z"></path><path style="fill:#7b7a79; stroke:none;" d="M39.3333 66.6667L39.6667 67.3333L39.3333 66.6667M74 66L75 67L74 66M80 66L81 67L80 66M133.333 66.6667L133.667 67.3333L133.333 66.6667M42.3333 67.6667L42.6667 68.3333L42.3333 67.6667M73 67L74 68L73 67M78 67L79 68L78 67M130.333 67.6667L130.667 68.3333L130.333 67.6667z"></path><path style="fill:#c5c0bd; stroke:none;" d="M54 68L55 69L54 68z"></path><path style="fill:#7b7a79; stroke:none;" d="M72 68L73 69L72 68z"></path><path style="fill:#bf8c63; stroke:none;" d="M77 68L78 69L77 68z"></path><path style="fill:#c5c0bd; stroke:none;" d="M98 68L99 69L98 68M118 68L119 69L118 68M38.3333 69.6667L38.6667 70.3333L38.3333 69.6667M42 69L43 70L42 69M53 69L54 70L53 69M76 69L77 70L76 69M119 69L120 70L119 69M130 69L131 70L130 69M134 69L135 70L134 69M52 70L53 71L52 70M75 70L76 71L75 70z"></path><path style="fill:#7b7a79; stroke:none;" d="M100.667 70.3333L101.333 70.6667L100.667 70.3333z"></path><path style="fill:#c5c0bd; stroke:none;" d="M120 70L121 71L120 70z"></path><path style="fill:#7b7a79; stroke:none;" d="M134 70L134 73L135 73L134 70M38 71L39 72L38 71M41.3333 71.6667L41.6667 72.3333L41.3333 71.6667z"></path><path style="fill:#c5c0bd; stroke:none;" d="M51 71L52 72L51 71z"></path><path style="fill:#7b7a79; stroke:none;" d="M70 71L71 72L70 71M74 71L75 72L74 71M99.3333 71.6667L99.6667 72.3333L99.3333 71.6667M102 71L103 72L102 71z"></path><path style="fill:#c5c0bd; stroke:none;" d="M121 71L122 72L121 71z"></path><path style="fill:#7b7a79; stroke:none;" d="M131.333 71.6667L131.667 72.3333L131.333 71.6667z"></path><path style="fill:#c5c0bd; stroke:none;" d="M50 72L51 73L50 72M122 72L123 73L122 72M41 73L42 74L41 73z"></path><path style="fill:#7b7a79; stroke:none;" d="M69.3333 73.6667L69.6667 74.3333L69.3333 73.6667z"></path><path style="fill:#c5c0bd; stroke:none;" d="M73 73L74 74L73 73M99 73L100 74L99 73z"></path><path style="fill:#bf8c63; stroke:none;" d="M131 73L132 74L131 73z"></path><path style="fill:#c5c0bd; stroke:none;" d="M37 74L37 85L38 85L37 74z"></path><path style="fill:#7b7a79; stroke:none;" d="M103 74L104 75L103 74z"></path><path style="fill:#c5c0bd; stroke:none;" d="M131.333 74.6667L131.667 75.3333L131.333 74.6667M48 75L49 76L48 75z"></path><path style="fill:#7b7a79; stroke:none;" d="M72 75L73 76L72 75M100 75L101 76L100 75z"></path><path style="fill:#c5c0bd; stroke:none;" d="M124 75L125 76L124 75M72 76L73 77L72 76M100 76L101 77L100 76M135.333 76.6667L135.667 77.3333L135.333 76.6667z"></path><path style="fill:#7b7a79; stroke:none;" d="M68 77L68 83L69 83L68 77M104 77L104 83L105 83L104 77z"></path><path style="fill:#c5c0bd; stroke:none;" d="M47 78L47 82L48 82L47 78M125 78L125 82L126 82L125 78z"></path><path style="fill:#7b7a79; stroke:none;" d="M132 78L133 79L132 78M135 78L136 79L135 78z"></path><path style="fill:#bf8c63; stroke:none;" d="M135 79L136 80L135 79z"></path><path style="fill:#c5c0bd; stroke:none;" d="M135 80L135 85L136 85L135 80M72 83L73 84L72 83M100 83L101 84L100 83M48 84L49 85L48 84z"></path><path style="fill:#7b7a79; stroke:none;" d="M72 84L73 85L72 84M100 84L101 85L100 84z"></path><path style="fill:#c5c0bd; stroke:none;" d="M124 84L125 85L124 84M131 84L131 87L132 87L131 84M41 85L42 86L41 85z"></path><path style="fill:#7b7a79; stroke:none;" d="M69 85L70 86L69 85M103 85L104 86L103 85z"></path><path style="fill:#bf8c63; stroke:none;" d="M41 86L42 87L41 86z"></path><path style="fill:#c5c0bd; stroke:none;" d="M73 86L74 87L73 86M99 86L100 87L99 86z"></path><path style="fill:#7b7a79; stroke:none;" d="M38 87L39 88L38 87M41 87L42 88L41 87M131 87L132 88L131 87z"></path><path style="fill:#bf8c63; stroke:none;" d="M38 88L39 89L38 88z"></path><path style="fill:#c5c0bd; stroke:none;" d="M51 88L52 89L51 88z"></path><path style="fill:#7b7a79; stroke:none;" d="M70 88L71 89L70 88M74 88L75 89L74 88M98 88L99 89L98 88M102 88L103 89L102 88z"></path><path style="fill:#c5c0bd; stroke:none;" d="M121 88L122 89L121 88z"></path><path style="fill:#7b7a79; stroke:none;" d="M134 88L135 89L134 88z"></path><path style="fill:#c5c0bd; stroke:none;" d="M38 89L39 90L38 89M52 89L53 90L52 89z"></path><path style="fill:#7b7a79; stroke:none;" d="M71 89L72 90L71 89z"></path><path style="fill:#c5c0bd; stroke:none;" d="M75 89L76 90L75 89M97 89L98 90L97 89M120 89L121 90L120 89z"></path><path style="fill:#bf8c63; stroke:none;" d="M134 89L135 90L134 89z"></path><path style="fill:#c5c0bd; stroke:none;" d="M42.3333 90.6667L42.6667 91.3333L42.3333 90.6667M53 90L54 91L53 90M76 90L77 91L76 90M96 90L97 91L96 90M119 90L120 91L119 90M130 90L131 91L130 90M134 90L135 91L134 90M54 91L55 92L54 91z"></path><path style="fill:#7b7a79; stroke:none;" d="M72 91L73 92L72 91M77 91L78 92L77 91M95 91L96 92L95 91M100 91L101 92L100 91z"></path><path style="fill:#c5c0bd; stroke:none;" d="M118 91L119 92L118 91z"></path><path style="fill:#7b7a79; stroke:none;" d="M130.333 91.6667L130.667 92.3333L130.333 91.6667M39.3333 92.6667L39.6667 93.3333L39.3333 92.6667M42 92L43 93L42 92z"></path><path style="fill:#c5c0bd; stroke:none;" d="M55 92L56 93L55 92z"></path><path style="fill:#7b7a79; stroke:none;" d="M73 92L74 93L73 92z"></path><path style="fill:#c5c0bd; stroke:none;" d="M79 92L80 93L79 92M93 92L94 93L93 92z"></path><path style="fill:#7b7a79; stroke:none;" d="M99 92L100 93L99 92z"></path><path style="fill:#c5c0bd; stroke:none;" d="M117 92L118 93L117 92z"></path><path style="fill:#7b7a79; stroke:none;" d="M133.333 92.6667L133.667 93.3333L133.333 92.6667M74 93L75 94L74 93M80 93L81 94L80 93z"></path><path style="fill:#c5c0bd; stroke:none;" d="M81 93L82 94L81 93M91 93L92 94L91 93z"></path><path style="fill:#7b7a79; stroke:none;" d="M92 93L93 94L92 93M98 93L99 94L98 93z"></path><path style="fill:#c5c0bd; stroke:none;" d="M39 94L40 95L39 94M43 94L44 95L43 94z"></path><path style="fill:#7b7a79; stroke:none;" d="M83 94L83 95L86 95L83 94z"></path><path style="fill:#bf8c63; stroke:none;" d="M86 94L87 95L86 94z"></path><path style="fill:#7b7a79; stroke:none;" d="M87 94L87 95L90 95L87 94M97 94L98 95L97 94z"></path><path style="fill:#c5c0bd; stroke:none;" d="M129 94L130 95L129 94M133 94L134 95L133 94z"></path><path style="fill:#7b7a79; stroke:none;" d="M40 95L41 96L40 95M43 95L44 96L43 95M77 95L78 96L77 95M95 95L96 96L95 95M129 95L130 96L129 95z"></path><path style="fill:#c5c0bd; stroke:none;" d="M40 96L41 97L40 96M44 96L45 97L44 96M58 96L59 97L58 96z"></path><path style="fill:#7b7a79; stroke:none;" d="M79 96L80 97L79 96M93 96L94 97L93 96z"></path><path style="fill:#c5c0bd; stroke:none;" d="M114 96L115 97L114 96M128 96L129 97L128 96z"></path><path style="fill:#7b7a79; stroke:none;" d="M132 96L133 97L132 96M44 97L45 98L44 97M82 97L83 98L82 97M90 97L91 98L90 97M128 97L129 98L128 97M41 98L42 99L41 98z"></path><path style="fill:#c5c0bd; stroke:none;" d="M59.3333 98.6667L59.6667 99.3333L59.3333 98.6667M113.333 98.6667L113.667 99.3333L113.333 98.6667z"></path><path style="fill:#7b7a79; stroke:none;" d="M131 98L132 99L131 98z"></path><path style="fill:#c5c0bd; stroke:none;" d="M41 99L42 100L41 99z"></path><path style="fill:#bf8c63; stroke:none;" d="M45 99L46 100L45 99M127 99L128 100L127 99z"></path><path style="fill:#c5c0bd; stroke:none;" d="M131 99L132 100L131 99z"></path><path style="fill:#7b7a79; stroke:none;" d="M42 100L43 101L42 100M45 100L46 101L45 100M130 100L131 101L130 100z"></path><path style="fill:#bf8c63; stroke:none;" d="M42 101L43 102L42 101z"></path><path style="fill:#c5c0bd; stroke:none;" d="M46 101L47 102L46 101M60.3333 101.667L60.6667 102.333L60.3333 101.667M112.333 101.667L112.667 102.333L112.333 101.667M126 101L127 102L126 101M130 101L131 102L130 101z"></path><path style="fill:#7b7a79; stroke:none;" d="M126 102L127 103L126 102M129 102L130 103L129 102z"></path><path style="fill:#c5c0bd; stroke:none;" d="M43 103L44 104L43 103z"></path><path style="fill:#7b7a79; stroke:none;" d="M47 103L48 104L47 103M125 103L126 104L125 103z"></path><path style="fill:#c5c0bd; stroke:none;" d="M129 103L130 104L129 103z"></path><path style="fill:#7b7a79; stroke:none;" d="M44 104L45 105L44 104z"></path><path style="fill:#c5c0bd; stroke:none;" d="M48 104L49 105L48 104M61.3333 104.667L61.6667 105.333L61.3333 104.667M111.333 104.667L111.667 105.333L111.333 104.667M124 104L125 105L124 104z"></path><path style="fill:#7b7a79; stroke:none;" d="M128 104L129 105L128 104z"></path><path style="fill:#c5c0bd; stroke:none;" d="M44 105L45 106L44 105z"></path><path style="fill:#7b7a79; stroke:none;" d="M48 105L49 106L48 105M124 105L125 106L124 105z"></path><path style="fill:#c5c0bd; stroke:none;" d="M128 105L129 106L128 105z"></path><path style="fill:#bf8c63; stroke:none;" d="M45 106L46 107L45 106z"></path><path style="fill:#7b7a79; stroke:none;" d="M49 106L50 107L49 106M123 106L124 107L123 106z"></path><path style="fill:#bf8c63; stroke:none;" d="M127 106L128 107L127 106z"></path><path style="fill:#7b7a79; stroke:none;" d="M46 107L47 108L46 107z"></path><path style="fill:#c5c0bd; stroke:none;" d="M50 107L51 108L50 107M62 107L63 108L62 107M110 107L111 108L110 107M122 107L123 108L122 107z"></path><path style="fill:#7b7a79; stroke:none;" d="M126 107L127 108L126 107z"></path><path style="fill:#c5c0bd; stroke:none;" d="M46 108L47 109L46 108z"></path><path style="fill:#7b7a79; stroke:none;" d="M50 108L51 109L50 108M122 108L123 109L122 108z"></path><path style="fill:#c5c0bd; stroke:none;" d="M126 108L127 109L126 108z"></path><path style="fill:#bf8c63; stroke:none;" d="M47 109L48 110L47 109z"></path><path style="fill:#7b7a79; stroke:none;" d="M51 109L52 110L51 109M121 109L122 110L121 109z"></path><path style="fill:#c5c0bd; stroke:none;" d="M125 109L126 110L125 109z"></path><path style="fill:#7b7a79; stroke:none;" d="M48 110L49 111L48 110M52 110L53 111L52 110M120 110L121 111L120 110M124 110L125 111L124 110M49 111L50 112L49 111M53 111L54 112L53 111z"></path><path style="fill:#c5c0bd; stroke:none;" d="M64 111L65 112L64 111M108 111L109 112L108 111z"></path><path style="fill:#7b7a79; stroke:none;" d="M119 111L120 112L119 111M50 112L51 113L50 112M54 112L55 113L54 112z"></path><path style="fill:#c5c0bd; stroke:none;" d="M65 112L66 113L65 112M86 112L87 113L86 112M107 112L108 113L107 112z"></path><path style="fill:#7b7a79; stroke:none;" d="M118 112L119 113L118 112z"></path><path style="fill:#c5c0bd; stroke:none;" d="M123 112L124 113L123 112z"></path><path style="fill:#7b7a79; stroke:none;" d="M51 113L52 114L51 113M55 113L56 114L55 113z"></path><path style="fill:#c5c0bd; stroke:none;" d="M66 113L67 114L66 113M79.6667 113.333L80.3333 113.667L79.6667 113.333M92.6667 113.333L93.3333 113.667L92.6667 113.333M106 113L107 114L106 113z"></path><path style="fill:#7b7a79; stroke:none;" d="M117 113L118 114L117 113z"></path><path style="fill:#c5c0bd; stroke:none;" d="M122 113L123 114L122 113z"></path><path style="fill:#7b7a79; stroke:none;" d="M52 114L53 115L52 114M56 114L57 115L56 114z"></path><path style="fill:#c5c0bd; stroke:none;" d="M68 114L69 115L68 114M74.6667 114.333L75.3333 114.667L74.6667 114.333M97.6667 114.333L98.3333 114.667L97.6667 114.333M104 114L105 115L104 114M115 114L116 115L115 114z"></path><path style="fill:#7b7a79; stroke:none;" d="M116 114L117 115L116 114z"></path><path style="fill:#c5c0bd; stroke:none;" d="M121 114L122 115L121 114z"></path><path style="fill:#7b7a79; stroke:none;" d="M57 115L58 116L57 115z"></path><path style="fill:#c5c0bd; stroke:none;" d="M114 115L115 116L114 115M120 115L121 116L120 115M53 116L54 117L53 116M59 116L60 117L59 116z"></path><path style="fill:#7b7a79; stroke:none;" d="M113 116L114 117L113 116z"></path><path style="fill:#c5c0bd; stroke:none;" d="M119 116L120 117L119 116M54 117L55 118L54 117z"></path><path style="fill:#7b7a79; stroke:none;" d="M55 117L56 118L55 117M60 117L61 118L60 117z"></path><path style="fill:#c5c0bd; stroke:none;" d="M111 117L112 118L111 117z"></path><path style="fill:#7b7a79; stroke:none;" d="M112 117L113 118L112 117z"></path><path style="fill:#c5c0bd; stroke:none;" d="M118 117L119 118L118 117z"></path><path style="fill:#7b7a79; stroke:none;" d="M56 118L57 119L56 118z"></path><path style="fill:#c5c0bd; stroke:none;" d="M62 118L63 119L62 118z"></path><path style="fill:#7b7a79; stroke:none;" d="M110 118L111 119L110 118M116 118L117 119L116 118z"></path><path style="fill:#c5c0bd; stroke:none;" d="M117 118L118 119L117 118M57 119L58 120L57 119z"></path><path style="fill:#7b7a79; stroke:none;" d="M58 119L59 120L58 119M63 119L64 120L63 119z"></path><path style="fill:#c5c0bd; stroke:none;" d="M108 119L109 120L108 119z"></path><path style="fill:#7b7a79; stroke:none;" d="M109 119L110 120L109 119z"></path><path style="fill:#c5c0bd; stroke:none;" d="M115 119L116 120L115 119z"></path><path style="fill:#7b7a79; stroke:none;" d="M59 120L60 121L59 120M65 120L66 121L65 120z"></path><path style="fill:#c5c0bd; stroke:none;" d="M66 120L67 121L66 120M106 120L107 121L106 120z"></path><path style="fill:#7b7a79; stroke:none;" d="M107 120L108 121L107 120M113 120L114 121L113 120z"></path><path style="fill:#c5c0bd; stroke:none;" d="M60 121L61 122L60 121z"></path><path style="fill:#7b7a79; stroke:none;" d="M67 121L68 122L67 121z"></path><path style="fill:#c5c0bd; stroke:none;" d="M68 121L69 122L68 121M104 121L105 122L104 121z"></path><path style="fill:#7b7a79; stroke:none;" d="M105 121L106 122L105 121z"></path><path style="fill:#c5c0bd; stroke:none;" d="M112 121L113 122L112 121z"></path><path style="fill:#7b7a79; stroke:none;" d="M62 122L63 123L62 122z"></path><path style="fill:#bf8c63; stroke:none;" d="M70 122L71 123L70 122z"></path><path style="fill:#c5c0bd; stroke:none;" d="M101 122L102 123L101 122z"></path><path style="fill:#7b7a79; stroke:none;" d="M102 122L103 123L102 122M110 122L111 123L110 122z"></path><path style="fill:#c5c0bd; stroke:none;" d="M63 123L64 124L63 123z"></path><path style="fill:#7b7a79; stroke:none;" d="M64 123L65 124L64 123M72 123L73 124L72 123z"></path><path style="fill:#c5c0bd; stroke:none;" d="M73.6667 123.333L74.3333 123.667L73.6667 123.333M98.6667 123.333L99.3333 123.667L98.6667 123.333z"></path><path style="fill:#7b7a79; stroke:none;" d="M100 123L101 124L100 123M108 123L109 124L108 123z"></path><path style="fill:#c5c0bd; stroke:none;" d="M109 123L110 124L109 123M66 124L67 125L66 124z"></path><path style="fill:#7b7a79; stroke:none;" d="M67 124L68 125L67 124M76.6667 124.333L77.3333 124.667L76.6667 124.333z"></path><path style="fill:#c5c0bd; stroke:none;" d="M78.6667 124.333L79.3333 124.667L78.6667 124.333M94 124L95 125L94 124z"></path><path style="fill:#7b7a79; stroke:none;" d="M95.6667 124.333L96.3333 124.667L95.6667 124.333M106 124L107 125L106 124z"></path><path style="fill:#c5c0bd; stroke:none;" d="M107 124L108 125L107 124M68 125L69 126L68 125z"></path><path style="fill:#7b7a79; stroke:none;" d="M69 125L70 126L69 125M81 125L81 126L92 126L81 125M103 125L104 126L103 125z"></path><path style="fill:#bf8c63; stroke:none;" d="M104 125L105 126L104 125M71 126L72 127L71 126z"></path><path style="fill:#7b7a79; stroke:none;" d="M72 126L73 127L72 126M100 126L101 127L100 126z"></path><path style="fill:#bf8c63; stroke:none;" d="M101 126L102 127L101 126z"></path><path style="fill:#c5c0bd; stroke:none;" d="M102 126L103 127L102 126M74 127L75 128L74 127z"></path><path style="fill:#bf8c63; stroke:none;" d="M75 127L76 128L75 127z"></path><path style="fill:#7b7a79; stroke:none;" d="M76 127L77 128L76 127M96.6667 127.333L97.3333 127.667L96.6667 127.333z"></path><path style="fill:#c5c0bd; stroke:none;" d="M98 127L99 128L98 127M78 128L78 129L81 129L78 128z"></path><path style="fill:#7b7a79; stroke:none;" d="M81 128L81 129L84 129L81 128M89 128L89 129L92 129L89 128z"></path><path style="fill:#bf8c63; stroke:none;" d="M92 128L93 129L92 128z"></path><path style="fill:#c5c0bd; stroke:none;" d="M93 128L94 129L93 128z"></path><path style="fill:#bf8c63; stroke:none;" d="M45 156L45 161L128 161L128 156L45 156z"></path></svg>